<?xml version="1.0" encoding="utf-8"?>
<!-- Generator: Adobe Illustrator 27.0.0, SVG Export Plug-In . SVG Version: 6.00 Build 0)  -->
<svg version="1.1" xmlns="http://www.w3.org/2000/svg" xmlns:xlink="http://www.w3.org/1999/xlink" x="0px" y="0px"
	 viewBox="0 0 372 103.6" enable-background="new 0 0 372 103.6" xml:space="preserve">
<g id="Layer_2" display="none">
	<rect x="0.4" y="-2.3" display="inline" fill="#009444" width="423" height="138.7"/>
</g>
<g id="Layer_1">
	<g>
		<path fill="none" stroke="#FFFFFF" stroke-width="5" stroke-miterlimit="10" d="M24.2,33.7"/>
	</g>
	<g>
		<path fill="none" stroke="#FFFFFF" stroke-width="5" stroke-miterlimit="10" d="M75.2,25.7c0,11-8.9,20-20,20l-0.4,0
			c5.3-0.1,9.6-4.4,9.6-9.8c0,0,0,0,0-0.1c0-0.3,0-0.6,0-0.9c0-0.1,0-0.1,0-0.2c-0.8-10.3-9.4-18.5-19.9-18.5
			c-11,0-20.2,8.9-20.2,20v-2.6c0-8.4,4.7-16.1,12-21.8c6.5-5,15-7.1,23.1-5.8C68.4,8,75.2,16,75.2,25.7z"/>
	</g>
	<g>
		<path fill="none" stroke="#FFFFFF" stroke-width="5" stroke-miterlimit="10" d="M79.9,51.8c-4.7,7.8-13.1,13.1-22,14.2
			c-1.3,0.2-2.6,0.2-3.9,0.2l-9.3,0.1c-13.1,0-18.4,10-19.9,13.7c-0.1,0.3-0.5,0.2-0.5-0.1V63.7c0-10.1,8.4-18.3,18.5-18.3l1.9,0
			l10.1,0.2l0.4,0c11,0,20-8.9,20-20C75.2,16,68.4,8,59.3,6.1C60.5,6.3,61.8,6.6,63,7c8.4,2.5,15.5,9,19,17.2
			C85.7,33,84.9,43.6,79.9,51.8z"/>
	</g>
	<g>
		<path fill="none" stroke="#FFFFFF" stroke-width="5" stroke-miterlimit="10" d="M64.3,34.9c0,0.3,0,0.6,0,0.9c0,0,0,0,0,0.1"/>
	</g>
	<g>
		<path fill="none" stroke="#FFFFFF" stroke-width="5" stroke-miterlimit="10" d="M35.2,25.7"/>
	</g>
	<g>
		<path fill="none" stroke="#FFFFFF" stroke-width="5" stroke-miterlimit="10" d="M55.2,45.6"/>
	</g>
	<g>
		<path fill="none" stroke="#FFFFFF" stroke-width="5" stroke-miterlimit="10" d="M64.3,34.8c-0.5-5-4.7-8.8-9.8-8.8
			c-5.4,0-9.8,4.4-9.8,9.8v9.7l-1.9,0c-10.1,0-18.5,8.2-18.5,18.3V36.3c0-11,9.2-20,20.2-20C54.9,16.3,63.6,24.4,64.3,34.8z"/>
	</g>
	<g>
		<path fill="none" stroke="#FFFFFF" stroke-width="5" stroke-miterlimit="10" d="M44.6,66.3V69c0,11.3-9.2,20.4-20.4,20.4v-8.1
			C24.2,81.4,28.5,66.3,44.6,66.3z"/>
	</g>
	<g>
		<path fill="none" stroke="#FFFFFF" stroke-width="5" stroke-miterlimit="10" d="M55.2,45.6"/>
	</g>
	<g>
		<path fill="none" stroke="#FFFFFF" stroke-width="5" stroke-miterlimit="10" d="M54.8,45.6c-0.1,0-0.2,0-0.3,0"/>
	</g>
	<defs>
		<filter id="Adobe_OpacityMaskFilter" filterUnits="userSpaceOnUse" x="21.7" y="5.1" width="56" height="44.9">
			
				<feColorMatrix  type="matrix" values="-1 0 0 0 1  0 -1 0 0 1  0 0 -1 0 1  0 0 0 1 0" color-interpolation-filters="sRGB" result="source"/>
		</filter>
	</defs>
	<mask maskUnits="userSpaceOnUse" x="21.7" y="5.1" width="56" height="44.9" id="SVGID_1_">
		<g filter="url(#Adobe_OpacityMaskFilter)">
		</g>
	</mask>
	<g mask="url(#SVGID_1_)">
		<path fill="none" stroke="#FFFFFF" stroke-width="5" stroke-miterlimit="10" d="M75.2,27.7c-0.1,11-9,19.9-20.1,19.9l-0.4,0
			c5.3-0.1,9.6-4.4,9.6-9.7c0,0,0,0,0-0.1c0-0.3,0-0.6,0-0.9c0-0.1,0-0.1,0-0.2C63.6,26.4,55,18.2,44.5,18.1
			c-11-0.1-20.3,8.8-20.3,19.9l0-2.6c0-8.4,4.8-16.1,12.1-21.7c6.5-5,15.1-7,23.1-5.7C68.5,10,75.3,18,75.2,27.7z"/>
	</g>
	<g>
		<path fill="#FFFFFF" d="M94.7,71.4V33c0-2,0.5-3.5,1.4-4.5c0.9-1,2.1-1.5,3.5-1.5c1.5,0,2.7,0.5,3.6,1.5c0.9,1,1.4,2.5,1.4,4.5
			v38.3c0,2-0.5,3.5-1.4,4.5c-0.9,1-2.1,1.5-3.6,1.5c-1.4,0-2.6-0.5-3.5-1.5C95.1,74.9,94.7,73.4,94.7,71.4z"/>
		<path fill="#FFFFFF" d="M125.5,33v17.1l19.4-20.2c0.9-1,1.7-1.7,2.4-2.2c0.7-0.5,1.5-0.7,2.6-0.7c1.4,0,2.6,0.4,3.4,1.2
			c0.9,0.8,1.3,1.8,1.3,3c0,1.4-0.7,2.9-2.2,4.3l-12,11.4l13.8,19.8c1,1.4,1.7,2.6,2.2,3.6c0.5,1,0.7,2,0.7,3c0,1.1-0.4,2-1.3,2.8
			c-0.9,0.8-2,1.2-3.5,1.2c-1.4,0-2.5-0.3-3.4-0.9c-0.9-0.6-1.6-1.4-2.2-2.3c-0.6-1-1.1-1.9-1.6-2.7l-11.7-17.9l-8.1,7.7v10.1
			c0,2-0.5,3.5-1.4,4.5c-0.9,1-2.1,1.5-3.6,1.5c-0.8,0-1.6-0.2-2.4-0.7c-0.8-0.4-1.4-1-1.8-1.8c-0.3-0.6-0.5-1.3-0.6-2.2
			c-0.1-0.8-0.1-2-0.1-3.6V33c0-2,0.4-3.5,1.3-4.5c0.9-1,2.1-1.5,3.6-1.5c1.5,0,2.7,0.5,3.6,1.5C125,29.5,125.5,31,125.5,33z"/>
		<path fill="#FFFFFF" d="M197,71l-2.3-6.1h-19.8l-2.3,6.2c-0.9,2.4-1.7,4.1-2.3,4.9c-0.6,0.9-1.7,1.3-3.2,1.3
			c-1.2,0-2.3-0.5-3.3-1.4c-1-0.9-1.4-1.9-1.4-3.1c0-0.7,0.1-1.3,0.3-2.1c0.2-0.7,0.6-1.7,1.1-3l12.5-31.6c0.4-0.9,0.8-2,1.3-3.3
			c0.5-1.3,1-2.3,1.6-3.2c0.6-0.8,1.3-1.5,2.2-2c0.9-0.5,2.1-0.8,3.4-0.8c1.4,0,2.5,0.3,3.4,0.8c0.9,0.5,1.7,1.2,2.2,2
			c0.6,0.8,1,1.7,1.4,2.6c0.4,0.9,0.9,2.2,1.5,3.8l12.7,31.4c1,2.4,1.5,4.1,1.5,5.2c0,1.1-0.5,2.2-1.4,3.1c-0.9,0.9-2.1,1.4-3.4,1.4
			c-0.8,0-1.4-0.1-2-0.4c-0.6-0.3-1-0.7-1.4-1.1c-0.4-0.5-0.8-1.2-1.2-2.2C197.7,72.7,197.3,71.8,197,71z M177.5,57.5H192l-7.3-20.1
			L177.5,57.5z"/>
		<path fill="#FFFFFF" d="M228,55.7h-3.5v15.6c0,2.1-0.5,3.6-1.4,4.5c-0.9,1-2.1,1.5-3.6,1.5c-1.6,0-2.8-0.5-3.7-1.5
			c-0.9-1-1.3-2.5-1.3-4.5V33.9c0-2.1,0.5-3.7,1.4-4.6c1-1,2.5-1.4,4.6-1.4h16c2.2,0,4.1,0.1,5.7,0.3c1.6,0.2,3,0.6,4.2,1.1
			c1.5,0.6,2.9,1.6,4.1,2.8c1.2,1.2,2.1,2.6,2.7,4.2c0.6,1.6,0.9,3.3,0.9,5c0,3.6-1,6.5-3.1,8.7c-2,2.2-5.2,3.7-9.3,4.6
			c1.7,0.9,3.4,2.3,5,4.1c1.6,1.8,3,3.7,4.3,5.8c1.3,2,2.2,3.9,2.9,5.5c0.7,1.6,1,2.8,1,3.4c0,0.6-0.2,1.3-0.6,1.9
			c-0.4,0.6-1,1.1-1.7,1.5c-0.7,0.4-1.5,0.5-2.5,0.5c-1.1,0-2-0.3-2.8-0.8c-0.8-0.5-1.4-1.2-1.9-2c-0.5-0.8-1.3-2-2.2-3.5l-4-6.6
			c-1.4-2.4-2.7-4.2-3.8-5.5c-1.1-1.3-2.3-2.1-3.4-2.6C231.2,56,229.8,55.7,228,55.7z M233.7,35.3h-9.1v13.4h8.8
			c2.4,0,4.4-0.2,6-0.6c1.6-0.4,2.8-1.1,3.7-2.1c0.9-1,1.3-2.3,1.3-4.1c0-1.4-0.3-2.5-1-3.6c-0.7-1-1.6-1.8-2.9-2.3
			C239.3,35.5,237.1,35.3,233.7,35.3z"/>
		<path fill="#FFFFFF" d="M291.9,36h-10.8v35.4c0,2-0.5,3.5-1.4,4.5c-0.9,1-2.1,1.5-3.5,1.5c-1.5,0-2.7-0.5-3.6-1.5
			c-0.9-1-1.4-2.5-1.4-4.5V36h-10.8c-1.7,0-2.9-0.4-3.8-1.1c-0.8-0.7-1.2-1.7-1.2-2.9c0-1.3,0.4-2.3,1.3-3c0.9-0.7,2.1-1.1,3.7-1.1
			h31.3c1.7,0,3,0.4,3.8,1.1c0.8,0.8,1.2,1.7,1.2,3c0,1.2-0.4,2.2-1.3,2.9C294.9,35.6,293.6,36,291.9,36z"/>
	</g>
</g>
</svg>
