<?xml version="1.0" encoding="utf-8"?>
<!-- Generator: Adobe Illustrator 26.3.1, SVG Export Plug-In . SVG Version: 6.00 Build 0)  -->
<svg version="1.1" xmlns="http://www.w3.org/2000/svg" xmlns:xlink="http://www.w3.org/1999/xlink" x="0px" y="0px"
	 viewBox="0 0 100 35" style="enable-background:new 0 0 100 35;" xml:space="preserve">
<style type="text/css">
	.st0{fill:#00ADEE;}
	.st1{fill:#FFFFFF;}
</style>
<g id="katman_1">
</g>
<g id="Layer_2">
	<g>
		<path class="st0" d="M22.9,5.4h2.6c0.3,0,0.6-0.3,0.6-0.6V4.6c0-0.3-0.3-0.6-0.6-0.6h-2.6c-0.3,0-0.6,0.3-0.6,0.6v0.3
			C22.3,5.2,22.5,5.4,22.9,5.4z"/>
		<path class="st0" d="M27.1,16.3C27.2,16.3,27.2,16.3,27.1,16.3L27.1,16.3c-0.3,0-0.6,0.1-0.8,0.1c-0.2,0.1-0.4,0.2-0.6,0.4
			L25.6,17c0,0,0,0,0,0l-1,1.1c0,0.3,0.1,0.6,0.1,1c0,4.6-3.7,8.3-8.3,8.3c-3.2,0-6-1.8-7.4-4.5l-6.2,6.7C3.5,30.5,4.7,31,6,31h18.6
			c2.5,0,4.5-2,4.5-4.5v-8.2C29.1,17.2,28.2,16.3,27.1,16.3z"/>
		<path class="st0" d="M4.6,21C4.6,21,4.6,21,4.6,21L4.6,21c0.3,0,0.6-0.1,0.8-0.1c0.2-0.1,0.4-0.2,0.6-0.4l0.1-0.1c0,0,0,0,0,0
			l1.9-2c0.4-4.2,4-7.5,8.3-7.5c2.8,0,5.3,1.4,6.8,3.5l6-6.5c-0.8-0.9-2-1.5-3.3-1.5H7.1c-2.5,0-4.5,2-4.5,4.5v8.2
			C2.7,20,3.5,20.9,4.6,21z M5.5,9.8c0-0.3,0.3-0.6,0.6-0.6h2.6c0.3,0,0.6,0.3,0.6,0.6V10c0,0.3-0.3,0.6-0.6,0.6H6.1
			c-0.3,0-0.6-0.3-0.6-0.6V9.8z"/>
		<circle class="st0" cx="16.3" cy="18.9" r="5.1"/>
	</g>
	<path class="st1" d="M44.4,17.9c0-0.3,0.3-0.6,0.6-0.6h9.9c0.1,0.2,0.1,0.5,0.2,0.9s0.1,0.7,0.1,1c0,1.4-0.2,2.7-0.6,3.9
		s-1.1,2.3-2,3.3c-1,1-2.1,1.8-3.5,2.4c-1.3,0.6-2.9,0.8-4.6,0.8c-1.6,0-3-0.3-4.4-0.8s-2.6-1.3-3.6-2.3s-1.8-2.2-2.4-3.6
		c-0.6-1.4-0.9-2.9-0.9-4.5c0-1.6,0.3-3.1,0.9-4.5c0.6-1.4,1.4-2.6,2.4-3.6s2.2-1.8,3.6-2.3c1.4-0.6,2.9-0.8,4.4-0.8
		c1.7,0,3.3,0.3,4.7,0.9c1.2,0.5,2.2,1.2,3.1,2c0.3,0.2,0.2,0.7,0,0.9l-1.9,1.9c-0.2,0.2-0.6,0.2-0.9,0c-0.6-0.5-1.2-1-1.9-1.3
		c-0.9-0.4-1.9-0.6-3.1-0.6c-1,0-1.9,0.2-2.8,0.5c-0.9,0.4-1.6,0.8-2.3,1.5c-0.7,0.6-1.2,1.4-1.6,2.3c-0.4,0.9-0.6,1.9-0.6,3
		c0,1.1,0.2,2.1,0.6,3c0.4,0.9,0.9,1.7,1.6,2.3c0.7,0.6,1.4,1.1,2.3,1.5c0.9,0.3,1.8,0.5,2.8,0.5c1.1,0,2.1-0.2,2.9-0.5
		c0.8-0.3,1.5-0.8,2-1.3c0.4-0.4,0.7-0.8,1-1.4c0.2-0.3,0.3-0.6,0.4-1c0.1-0.4-0.2-0.9-0.6-0.9H45c-0.3,0-0.6-0.3-0.6-0.6V17.9z"/>
	<path class="st1" d="M60.6,17.9c-0.5,0-1-0.1-1.4-0.2c-0.4-0.2-0.8-0.4-1-0.7s-0.5-0.7-0.7-1.1c-0.2-0.4-0.2-1-0.2-1.5V9.8
		c0-0.3,0.3-0.6,0.6-0.6h0.4c0.3,0,0.6,0.3,0.6,0.6v4.6c0,0.3,0,0.6,0.1,0.8c0.1,0.2,0.2,0.4,0.3,0.6c0.1,0.2,0.3,0.3,0.5,0.4
		c0.2,0.1,0.5,0.1,0.7,0.1c0.3,0,0.5,0,0.8-0.1c0.2-0.1,0.4-0.2,0.5-0.4c0.1-0.2,0.3-0.4,0.3-0.6c0.1-0.2,0.1-0.5,0.1-0.8V9.8
		c0-0.3,0.3-0.6,0.6-0.6h0.4c0.3,0,0.6,0.3,0.6,0.6v4.5c0,0.5-0.1,1-0.2,1.5c-0.2,0.4-0.4,0.8-0.7,1.1c-0.3,0.3-0.6,0.6-1.1,0.7
		C61.6,17.9,61.1,17.9,60.6,17.9z"/>
	<path class="st1" d="M65.5,9.8c0-0.3,0.3-0.6,0.6-0.6h2.3c0.7,0,1.3,0.1,1.8,0.3s1,0.5,1.4,0.9s0.7,0.8,0.9,1.4
		c0.2,0.5,0.3,1.1,0.3,1.7c0,0.6-0.1,1.2-0.3,1.8s-0.5,1-0.9,1.4s-0.8,0.7-1.4,0.9s-1.2,0.3-1.8,0.3h-2.3c-0.3,0-0.6-0.3-0.6-0.6
		V9.8z M68.3,16.2c0.5,0,0.9-0.1,1.2-0.2c0.4-0.1,0.7-0.3,0.9-0.6c0.2-0.2,0.4-0.5,0.5-0.9c0.1-0.3,0.2-0.7,0.2-1.1
		s-0.1-0.8-0.2-1.1c-0.1-0.3-0.3-0.6-0.5-0.9c-0.2-0.2-0.5-0.4-0.9-0.6c-0.4-0.1-0.8-0.2-1.2-0.2h-1.2v5.5H68.3z"/>
	<path class="st1" d="M76.7,9.2h1c0.3,0,0.5,0.2,0.6,0.4l2.8,7.3c0.2,0.4-0.2,0.9-0.6,0.9H80c-0.3,0-0.5-0.2-0.6-0.4L79,16.1
		c-0.1-0.3-0.3-0.4-0.6-0.4H76c-0.3,0-0.5,0.2-0.6,0.4L75,17.3c-0.1,0.3-0.3,0.4-0.6,0.4H74c-0.4,0-0.7-0.4-0.6-0.9l2.8-7.3
		C76.2,9.3,76.5,9.2,76.7,9.2z M77.4,14.2c0.4,0,0.7-0.4,0.6-0.8l-0.5-1.3l-0.3-1h-0.1l-0.3,1l-0.5,1.3c-0.1,0.4,0.2,0.8,0.6,0.8
		H77.4z"/>
	<path class="st1" d="M83,9.2h0.9c0.2,0,0.4,0.1,0.5,0.3l3.3,5.5h0.1l-0.1-1.6c0,0,0,0,0,0V9.8c0-0.3,0.3-0.6,0.6-0.6h0.3
		c0.3,0,0.6,0.3,0.6,0.6v7.3c0,0.3-0.3,0.6-0.6,0.6H88c-0.2,0-0.4-0.1-0.5-0.3L84,11.7h-0.1l0.1,1.6c0,0,0,0,0,0v3.8
		c0,0.3-0.3,0.6-0.6,0.6H83c-0.3,0-0.6-0.3-0.6-0.6V9.8C82.4,9.4,82.7,9.2,83,9.2z"/>
	<path class="st1" d="M95,13h4.2c0,0.1,0,0.2,0.1,0.3c0,0.1,0,0.3,0,0.4c0,0.6-0.1,1.1-0.3,1.6s-0.4,0.9-0.8,1.3
		c-0.4,0.4-0.8,0.7-1.4,0.9c-0.5,0.2-1.1,0.3-1.8,0.3c-0.6,0-1.2-0.1-1.8-0.3c-0.6-0.2-1-0.5-1.4-0.9c-0.4-0.4-0.7-0.9-1-1.4
		c-0.2-0.5-0.4-1.1-0.4-1.8s0.1-1.2,0.4-1.8c0.2-0.5,0.6-1,1-1.4c0.4-0.4,0.9-0.7,1.4-0.9C93.8,9.1,94.4,9,95,9
		c0.7,0,1.3,0.1,1.9,0.4c0.3,0.1,0.6,0.3,0.9,0.5c0.3,0.2,0.3,0.7,0,1l-0.6,0.6c-0.3-0.3-0.6-0.5-0.9-0.7c-0.3-0.2-0.8-0.2-1.2-0.2
		c-0.4,0-0.8,0.1-1.1,0.2c-0.4,0.1-0.7,0.3-0.9,0.6c-0.3,0.3-0.5,0.6-0.6,0.9c-0.2,0.4-0.2,0.8-0.2,1.2s0.1,0.9,0.2,1.2
		c0.2,0.4,0.4,0.7,0.6,0.9c0.3,0.3,0.6,0.5,0.9,0.6c0.4,0.1,0.7,0.2,1.1,0.2c0.5,0,0.8-0.1,1.2-0.2c0.3-0.1,0.6-0.3,0.8-0.5
		c0.2-0.1,0.3-0.3,0.4-0.5c0.1-0.2,0.2-0.5,0.3-0.7H95V13z"/>
	<path class="st1" d="M60.4,19.2h1c0.3,0,0.5,0.2,0.6,0.4l2.8,7.3c0.2,0.4-0.2,0.9-0.6,0.9h-0.4c-0.3,0-0.5-0.2-0.6-0.4l-0.4-1.2
		c-0.1-0.3-0.3-0.4-0.6-0.4h-2.4c-0.3,0-0.5,0.2-0.6,0.4l-0.4,1.2c-0.1,0.3-0.3,0.4-0.6,0.4h-0.4c-0.4,0-0.7-0.4-0.6-0.9l2.8-7.3
		C59.9,19.3,60.2,19.2,60.4,19.2z M61.7,23.4l-0.5-1.3c0,0,0,0,0,0L61,21h-0.1l-0.3,1l-0.5,1.3c-0.1,0.4,0.2,0.8,0.6,0.8h0.5
		C61.6,24.2,61.9,23.8,61.7,23.4z"/>
	<path class="st1" d="M66.7,19.2h0.6c0.2,0,0.4,0.1,0.5,0.3l2.4,4.2h0.1l2.4-4.2c0.1-0.2,0.3-0.3,0.5-0.3H74c0.3,0,0.6,0.3,0.6,0.6
		v7.3c0,0.3-0.3,0.6-0.6,0.6h-0.3c-0.3,0-0.6-0.3-0.6-0.6v-3.6c0,0,0,0,0,0l0.1-1.4H73l-2.2,3.9h-1l-2.2-3.9h-0.1l0.1,1.4
		c0,0,0,0,0,0v3.6c0,0.3-0.3,0.6-0.6,0.6h-0.3c-0.3,0-0.6-0.3-0.6-0.6v-7.3C66.1,19.4,66.4,19.2,66.7,19.2z"/>
	<path class="st1" d="M76.4,19.8c0-0.3,0.3-0.6,0.6-0.6h2.7c0.4,0,0.7,0.1,1,0.2s0.6,0.3,0.8,0.5s0.4,0.4,0.6,0.7
		c0.1,0.3,0.2,0.6,0.2,0.9c0,0.5-0.1,0.8-0.3,1.1c-0.2,0.3-0.5,0.5-0.8,0.7v0.1c0.4,0.2,0.8,0.4,1.1,0.8c0.3,0.3,0.4,0.8,0.4,1.3
		c0,0.4-0.1,0.7-0.2,1c-0.1,0.3-0.4,0.5-0.6,0.8s-0.6,0.4-0.9,0.5c-0.3,0.1-0.7,0.2-1.1,0.2H77c-0.3,0-0.6-0.3-0.6-0.6V19.8z
		 M79.6,22.7c0.4,0,0.7-0.1,0.9-0.3s0.3-0.4,0.3-0.7s-0.1-0.5-0.3-0.7c-0.2-0.2-0.5-0.3-0.8-0.3h-1c-0.3,0-0.6,0.3-0.6,0.6V22
		c0,0.3,0.3,0.6,0.6,0.6H79.6z M79.8,26.3c0.4,0,0.7-0.1,0.9-0.3s0.3-0.5,0.3-0.8s-0.1-0.6-0.3-0.8s-0.5-0.3-1-0.3h-1.1
		c-0.3,0-0.6,0.3-0.6,0.6v0.9c0,0.3,0.3,0.6,0.6,0.6H79.8z"/>
	<path class="st1" d="M86.7,19.2h1c0.3,0,0.5,0.2,0.6,0.4l2.8,7.3c0.2,0.4-0.2,0.9-0.6,0.9H90c-0.3,0-0.5-0.2-0.6-0.4L89,26.1
		c-0.1-0.3-0.3-0.4-0.6-0.4H86c-0.3,0-0.5,0.2-0.6,0.4L85,27.3c-0.1,0.3-0.3,0.4-0.6,0.4H84c-0.4,0-0.7-0.4-0.6-0.9l2.8-7.3
		C86.2,19.3,86.5,19.2,86.7,19.2z M87.4,24.2c0.4,0,0.7-0.4,0.6-0.8l-0.5-1.3l-0.3-1h-0.1l-0.3,1l-0.5,1.3c-0.1,0.4,0.2,0.8,0.6,0.8
		H87.4z"/>
	<path class="st1" d="M92.4,19.8c0-0.3,0.3-0.6,0.6-0.6h2.5c0.4,0,0.8,0.1,1.2,0.2c0.4,0.1,0.7,0.3,0.9,0.6s0.4,0.5,0.6,0.9
		c0.1,0.3,0.2,0.7,0.2,1.1c0,0.3,0,0.6-0.1,0.8c-0.1,0.3-0.2,0.5-0.4,0.7c-0.2,0.2-0.4,0.4-0.6,0.5c-0.2,0.2-0.5,0.3-0.7,0.4l0,0.1
		l2.3,3.3v0.1h-1.5c-0.2,0-0.4-0.1-0.5-0.3l-2-3H94v2.6c0,0.3-0.3,0.6-0.6,0.6H93c-0.3,0-0.6-0.3-0.6-0.6V19.8z M95.5,23
		c0.4,0,0.7-0.1,0.9-0.3c0.2-0.2,0.4-0.5,0.4-0.9c0-0.2,0-0.3-0.1-0.4c-0.1-0.1-0.1-0.3-0.2-0.4c-0.1-0.1-0.2-0.2-0.4-0.3
		c-0.2-0.1-0.3-0.1-0.5-0.1h-0.9c-0.3,0-0.6,0.3-0.6,0.6v1.1c0,0.3,0.3,0.6,0.6,0.6H95.5z"/>
</g>
</svg>
