<?xml version="1.0" encoding="utf-8"?>
<!-- Generator: Adobe Illustrator 26.3.1, SVG Export Plug-In . SVG Version: 6.00 Build 0)  -->
<svg version="1.1" id="katman_1" xmlns="http://www.w3.org/2000/svg" xmlns:xlink="http://www.w3.org/1999/xlink" x="0px" y="0px"
	 viewBox="0 0 133.5 46.4" style="enable-background:new 0 0 133.5 46.4;" xml:space="preserve">
<style type="text/css">
	.st0{fill:#FFFFFF;}
</style>
<g>
	<path class="st0" d="M33.9,3.5h4c0.5,0,0.9-0.4,0.9-0.9V2.1c0-0.5-0.4-0.9-0.9-0.9h-4c-0.5,0-0.9,0.4-0.9,0.9v0.4
		C33,3,33.4,3.5,33.9,3.5z"/>
	<path class="st0" d="M40.4,20C40.4,19.9,40.4,19.9,40.4,20L40.4,20c-0.5,0-0.9,0.1-1.2,0.2c-0.4,0.1-0.7,0.4-0.9,0.6L38,21l0,0
		l-1.5,1.6c0.1,0.5,0.1,1,0.1,1.4c0,7-5.7,12.6-12.6,12.6c-4.9,0-9.2-2.8-11.2-6.9L3.3,40.1c1.2,1.4,3,2.2,5,2.2h28.3
		c3.7,0,6.8-3,6.8-6.8V23C43.3,21.4,42,20,40.4,20z"/>
	<path class="st0" d="M6.2,27L6.2,27L6.2,27c0.5,0,0.9-0.1,1.2-0.2c0.4-0.1,0.7-0.4,0.9-0.6L8.5,26l0,0l2.8-3
		c0.6-6.4,6-11.4,12.6-11.4c4.2,0,8,2.1,10.3,5.3L43.3,7c-1.2-1.4-3-2.2-5-2.2H10c-3.7,0-6.8,3-6.8,6.8v12.5C3.3,25.6,4.6,27,6.2,27
		z M7.6,10c0-0.5,0.4-0.9,0.9-0.9h4c0.5,0,0.9,0.4,0.9,0.9v0.4c0,0.5-0.4,0.9-0.9,0.9h-4c-0.5,0-0.9-0.4-0.9-0.9V10z"/>
	<circle class="st0" cx="24" cy="24.1" r="6.7"/>
</g>
<g>
	<path class="st0" d="M59.1,13.7c0-0.4,0.3-0.7,0.7-0.7h7.4c0,0.2,0.1,0.4,0.1,0.7s0,0.5,0,0.8c0,1.1-0.2,2.1-0.5,3S66,19.3,65.3,20
		c-0.7,0.8-1.6,1.4-2.6,1.8s-2.2,0.6-3.5,0.6c-1.2,0-2.3-0.2-3.4-0.6c-1.1-0.4-2-1-2.8-1.8s-1.4-1.7-1.9-2.7s-0.7-2.2-0.7-3.4
		s0.2-2.4,0.7-3.4s1.1-2,1.9-2.7C53.8,7,54.7,6.4,55.8,6s2.2-0.6,3.4-0.6c1.3,0,2.5,0.2,3.6,0.7c0.8,0.4,1.5,0.8,2.2,1.4
		c0.3,0.3,0.3,0.7,0,1l-1.2,1.1c-0.3,0.2-0.7,0.3-0.9,0c-0.4-0.4-0.9-0.7-1.4-0.9c-0.7-0.3-1.4-0.4-2.4-0.4c-0.8,0-1.5,0.1-2.1,0.4
		c-0.7,0.3-1.3,0.6-1.8,1.1s-0.9,1.1-1.2,1.8s-0.4,1.5-0.4,2.3s0.1,1.6,0.4,2.3c0.3,0.7,0.7,1.3,1.2,1.8s1.1,0.9,1.8,1.1
		s1.4,0.4,2.2,0.4c0.9,0,1.6-0.1,2.2-0.4c0.6-0.3,1.1-0.6,1.6-1c0.3-0.3,0.6-0.6,0.8-1s0.4-0.9,0.5-1.4h-4.5c-0.4,0-0.7-0.3-0.7-0.7
		L59.1,13.7L59.1,13.7z"/>
	<path class="st0" d="M74,22.3c-0.7,0-1.4-0.1-1.9-0.3c-0.6-0.2-1.1-0.6-1.5-1s-0.7-1-1-1.6s-0.3-1.3-0.3-2.2v-6.6
		c0-0.4,0.3-0.7,0.7-0.7h0.9c0.4,0,0.7,0.3,0.7,0.7v6.8c0,0.4,0.1,0.8,0.2,1.1c0.1,0.3,0.3,0.6,0.5,0.9c0.2,0.2,0.5,0.4,0.8,0.6
		s0.7,0.2,1.1,0.2s0.8-0.1,1.1-0.2s0.6-0.3,0.8-0.6c0.2-0.2,0.4-0.5,0.5-0.9c0.1-0.3,0.2-0.7,0.2-1.1v-6.8c0-0.4,0.3-0.7,0.7-0.7H78
		c0.4,0,0.7,0.3,0.7,0.7v6.6c0,0.8-0.1,1.5-0.3,2.1c-0.2,0.6-0.5,1.2-1,1.6c-0.4,0.4-0.9,0.8-1.5,1C75.3,22.1,74.7,22.3,74,22.3z"/>
	<path class="st0" d="M80.9,10.5c0-0.4,0.3-0.7,0.7-0.7H85c1,0,1.8,0.1,2.6,0.4c0.8,0.3,1.4,0.7,2,1.2c0.5,0.5,1,1.2,1.2,1.9
		c0.3,0.7,0.4,1.6,0.4,2.5s-0.1,1.7-0.4,2.5c-0.3,0.7-0.7,1.4-1.2,1.9s-1.2,0.9-2,1.2C86.8,21.8,86,22,85,22h-3.4
		c-0.4,0-0.7-0.3-0.7-0.7V10.5z M84.9,19.8c0.7,0,1.3-0.1,1.8-0.3c0.5-0.2,0.9-0.5,1.3-0.8c0.3-0.3,0.6-0.8,0.8-1.2s0.3-1,0.3-1.6
		s-0.1-1.1-0.3-1.6s-0.4-0.9-0.8-1.2c-0.3-0.3-0.8-0.6-1.3-0.8S85.6,12,84.9,12h-1c-0.4,0-0.7,0.3-0.7,0.7v6.4
		c0,0.4,0.3,0.7,0.7,0.7C83.9,19.8,84.9,19.8,84.9,19.8z"/>
	<path class="st0" d="M96.6,9.8h1.7c0.3,0,0.5,0.2,0.6,0.4L103,21c0.2,0.5-0.2,0.9-0.6,0.9h-1c-0.3,0-0.6-0.2-0.7-0.5l-0.7-2
		c-0.1-0.3-0.4-0.5-0.7-0.5h-3.7c-0.3,0-0.6,0.2-0.7,0.5l-0.7,2c-0.1,0.3-0.4,0.5-0.7,0.5h-1c-0.5,0-0.8-0.5-0.6-0.9L96,10.3
		C96.1,10,96.3,9.8,96.6,9.8z M98.7,16.1L98,14l0,0l-0.4-1.5h-0.1L97,13.9l0,0L96.2,16c-0.2,0.5,0.2,1,0.6,1H98
		C98.6,17,98.9,16.5,98.7,16.1z"/>
	<path class="st0" d="M105.5,9.8h1.6c0.2,0,0.5,0.1,0.6,0.3l4.7,7.8h0.1l-0.1-2.3l0,0v-5.1c0-0.4,0.3-0.7,0.7-0.7h0.9
		c0.4,0,0.7,0.3,0.7,0.7v10.8c0,0.4-0.3,0.7-0.7,0.7h-1.3c-0.2,0-0.5-0.1-0.6-0.3l-5-8.3H107l0.1,2.3l0,0v5.6c0,0.4-0.3,0.7-0.7,0.7
		h-0.9c-0.4,0-0.7-0.3-0.7-0.7V10.5C104.8,10.1,105.1,9.8,105.5,9.8z"/>
	<path class="st0" d="M122.7,16c0-0.4,0.3-0.7,0.7-0.7h5.3c0,0.1,0.1,0.3,0.1,0.5s0,0.4,0,0.6c0,0.8-0.1,1.5-0.4,2.2
		c-0.2,0.7-0.6,1.3-1.1,1.9s-1.2,1-2,1.3s-1.6,0.5-2.6,0.5c-0.9,0-1.7-0.2-2.5-0.5s-1.5-0.8-2-1.3c-0.6-0.6-1-1.2-1.4-2
		s-0.5-1.6-0.5-2.5s0.2-1.8,0.5-2.5s0.8-1.4,1.4-2s1.3-1,2-1.3c0.8-0.3,1.6-0.5,2.5-0.5c1,0,1.9,0.2,2.6,0.5c0.5,0.2,1,0.5,1.4,0.9
		c0.3,0.3,0.4,0.8,0.1,1l-0.6,0.6c-0.2,0.2-0.6,0.3-0.9,0.1s-0.6-0.4-0.9-0.6c-0.5-0.2-1.1-0.3-1.8-0.3c-0.6,0-1.1,0.1-1.6,0.3
		s-0.9,0.5-1.3,0.8s-0.7,0.8-0.9,1.3c-0.2,0.5-0.3,1.1-0.3,1.7c0,0.6,0.1,1.2,0.3,1.7c0.2,0.5,0.5,1,0.9,1.3
		c0.4,0.4,0.8,0.6,1.3,0.8c0.5,0.2,1,0.3,1.6,0.3s1.2-0.1,1.6-0.3c0.4-0.2,0.8-0.4,1.1-0.7c0.2-0.2,0.4-0.5,0.6-0.8s0.3-0.7,0.4-1
		h-3.1c-0.4,0-0.7-0.3-0.7-0.7V16H122.7z"/>
	<path class="st0" d="M59.1,31.7c0-0.4,0.3-0.7,0.7-0.7h7.4c0,0.2,0.1,0.4,0.1,0.7c0,0.3,0,0.5,0,0.8c0,1.1-0.2,2.1-0.5,3
		S66,37.3,65.3,38c-0.7,0.8-1.6,1.4-2.6,1.8c-1,0.4-2.2,0.6-3.5,0.6c-1.2,0-2.3-0.2-3.4-0.6c-1.1-0.4-2-1-2.8-1.8s-1.4-1.7-1.9-2.7
		s-0.7-2.2-0.7-3.4c0-1.2,0.2-2.4,0.7-3.4s1.1-2,1.9-2.7c0.8-0.8,1.7-1.4,2.8-1.8s2.2-0.6,3.4-0.6c1.3,0,2.5,0.2,3.6,0.7
		c0.8,0.4,1.5,0.8,2.2,1.4c0.3,0.3,0.3,0.7,0,1l-1.2,1.1c-0.3,0.2-0.7,0.3-0.9,0c-0.4-0.4-0.9-0.7-1.4-0.9c-0.7-0.3-1.4-0.4-2.4-0.4
		c-0.8,0-1.5,0.1-2.1,0.4s-1.3,0.6-1.8,1.1s-0.9,1.1-1.2,1.8c-0.3,0.7-0.4,1.5-0.4,2.3c0,0.9,0.1,1.6,0.4,2.3
		c0.3,0.7,0.7,1.3,1.2,1.8s1.1,0.9,1.8,1.1s1.4,0.4,2.2,0.4c0.9,0,1.6-0.1,2.2-0.4c0.6-0.3,1.1-0.6,1.6-1c0.3-0.3,0.6-0.6,0.8-1
		s0.4-0.9,0.5-1.4h-4.5c-0.4,0-0.7-0.3-0.7-0.7L59.1,31.7L59.1,31.7z"/>
	<path class="st0" d="M73.5,27.8h1.7c0.3,0,0.5,0.2,0.6,0.4L79.9,39c0.2,0.5-0.2,0.9-0.6,0.9h-1c-0.3,0-0.6-0.2-0.7-0.5l-0.7-2
		c-0.1-0.3-0.4-0.5-0.7-0.5h-3.7c-0.3,0-0.6,0.2-0.7,0.5l-0.7,2c-0.1,0.3-0.4,0.5-0.7,0.5h-1c-0.5,0-0.8-0.5-0.6-0.9l4.1-10.8
		C73,28,73.3,27.8,73.5,27.8z M75.6,34.1L74.9,32l0,0l-0.4-1.5h-0.1L74,32l0,0l-0.8,2.1C73,34.6,73.4,35,73.9,35H75
		C75.5,35,75.8,34.5,75.6,34.1z"/>
	<path class="st0" d="M82.4,27.8h1.2c0.2,0,0.5,0.1,0.6,0.3l3.5,6.1h0.1l3.5-6.1c0.1-0.2,0.4-0.3,0.6-0.3h1.2c0.4,0,0.7,0.3,0.7,0.7
		v10.8c0,0.4-0.3,0.7-0.7,0.7h-0.9c-0.4,0-0.7-0.3-0.7-0.7V34l0,0l0.1-2h-0.1l-2.9,5.1c-0.1,0.2-0.4,0.4-0.6,0.4h-0.6
		c-0.2,0-0.5-0.1-0.6-0.3L83.9,32h-0.1l0.1,2l0,0v5.3c0,0.4-0.3,0.7-0.7,0.7h-0.9c-0.4,0-0.7-0.3-0.7-0.7V28.5
		C81.7,28.1,82,27.8,82.4,27.8z"/>
	<path class="st0" d="M96.3,28.5c0-0.4,0.3-0.7,0.7-0.7h4.1c0.5,0,1,0.1,1.5,0.2c0.5,0.2,0.8,0.4,1.2,0.7c0.3,0.3,0.6,0.6,0.8,1
		c0.2,0.4,0.3,0.8,0.3,1.2c0,0.6-0.2,1.2-0.5,1.6s-0.7,0.8-1.2,1v0.1c0.6,0.2,1.1,0.6,1.5,1.1s0.6,1.1,0.6,1.8c0,0.5-0.1,1-0.3,1.4
		c-0.2,0.4-0.5,0.8-0.9,1.1s-0.8,0.5-1.3,0.7s-1,0.2-1.6,0.2H97c-0.4,0-0.7-0.3-0.7-0.7V28.5z M100.8,32.8c0.5,0,0.9-0.1,1.2-0.4
		s0.4-0.6,0.4-1s-0.1-0.7-0.4-1s-0.7-0.4-1.2-0.4h-1.7c-0.4,0-0.7,0.3-0.7,0.7v1.5c0,0.4,0.3,0.7,0.7,0.7L100.8,32.8L100.8,32.8z
		 M101.1,37.9c0.6,0,1-0.1,1.3-0.4c0.3-0.3,0.5-0.7,0.5-1.1c0-0.5-0.2-0.8-0.5-1.1s-0.8-0.5-1.4-0.5h-1.8c-0.4,0-0.7,0.3-0.7,0.7
		v1.7c0,0.4,0.3,0.7,0.7,0.7C99.2,37.9,101.1,37.9,101.1,37.9z"/>
	<path class="st0" d="M110.8,27.8h1.7c0.3,0,0.5,0.2,0.6,0.4l4.1,10.8c0.2,0.5-0.2,0.9-0.6,0.9h-1c-0.3,0-0.6-0.2-0.7-0.5l-0.7-2
		c-0.1-0.3-0.4-0.5-0.7-0.5h-3.7c-0.3,0-0.6,0.2-0.7,0.5l-0.7,2c-0.1,0.3-0.4,0.5-0.7,0.5h-1c-0.5,0-0.8-0.5-0.6-0.9l4.1-10.8
		C110.3,28,110.5,27.8,110.8,27.8z M112.9,34.1l-0.8-2.1l0,0l-0.4-1.5h-0.1l-0.4,1.5l0,0l-0.8,2.1c-0.2,0.5,0.2,0.9,0.7,0.9h1.2
		C112.7,35,113.1,34.5,112.9,34.1z"/>
	<path class="st0" d="M118.9,28.5c0-0.4,0.3-0.7,0.7-0.7h3.7c0.6,0,1.2,0.1,1.7,0.3c0.5,0.2,0.9,0.5,1.3,0.8s0.6,0.7,0.8,1.2
		c0.2,0.5,0.3,1,0.3,1.5c0,0.4-0.1,0.8-0.2,1.1c-0.1,0.4-0.3,0.7-0.6,1s-0.5,0.5-0.8,0.8c-0.3,0.2-0.7,0.4-1,0.5v0.1l3.3,4.7V40
		h-2.3c-0.2,0-0.4-0.1-0.6-0.3l-2.9-4.3h-1.1v3.9c0,0.4-0.3,0.7-0.7,0.7h-0.9c-0.4,0-0.7-0.3-0.7-0.7
		C118.9,39.3,118.9,28.5,118.9,28.5z M123.4,33.3c0.5,0,0.9-0.2,1.3-0.5c0.3-0.3,0.5-0.7,0.5-1.2c0-0.2,0-0.4-0.1-0.6
		s-0.2-0.4-0.3-0.5c-0.1-0.2-0.3-0.3-0.6-0.4c-0.2-0.1-0.5-0.1-0.8-0.1h-1.5c-0.4,0-0.7,0.3-0.7,0.7v2c0,0.4,0.3,0.7,0.7,0.7
		L123.4,33.3L123.4,33.3z"/>
</g>
</svg>
