<?xml version="1.0" encoding="utf-8"?>
<!-- Generator: Adobe Illustrator 26.3.1, SVG Export Plug-In . SVG Version: 6.00 Build 0)  -->
<svg version="1.1" id="katman_1" xmlns="http://www.w3.org/2000/svg" xmlns:xlink="http://www.w3.org/1999/xlink" x="0px" y="0px"
	 viewBox="0 0 145.7 46.4" style="enable-background:new 0 0 145.7 46.4;" xml:space="preserve">
<style type="text/css">
	.st0{display:none;}
	.st1{display:inline;fill:#F97575;}
	.st2{display:inline;}
	.st3{fill:#00ADEE;}
	.st4{display:inline;fill:#4E4E4E;}
	.st5{fill:#FFFFFF;}
</style>
<g id="Layer_2" class="st0">
	<rect x="-6.4" y="-15.9" class="st1" width="159.4" height="75.9"/>
	<g class="st2">
		<path class="st3" d="M33.9,3.5h4c0.5,0,0.9-0.4,0.9-0.9V2.1c0-0.5-0.4-0.9-0.9-0.9h-4c-0.5,0-0.9,0.4-0.9,0.9v0.4
			C33,3,33.4,3.5,33.9,3.5z"/>
		<path class="st3" d="M40.4,20C40.4,19.9,40.4,19.9,40.4,20L40.4,20c-0.5,0-0.9,0.1-1.2,0.2c-0.4,0.1-0.7,0.4-0.9,0.6L38,21l0,0
			l-1.5,1.6c0.1,0.5,0.1,1,0.1,1.4c0,7-5.7,12.6-12.6,12.6c-4.9,0-9.2-2.8-11.2-6.9L3.3,40.1c1.2,1.4,3,2.2,5,2.2h28.3
			c3.7,0,6.8-3,6.8-6.8V23C43.3,21.4,42,20,40.4,20z"/>
		<path class="st3" d="M6.2,27L6.2,27L6.2,27c0.5,0,0.9-0.1,1.2-0.2c0.4-0.1,0.7-0.4,0.9-0.6L8.5,26l0,0l2.8-3
			c0.6-6.4,6-11.4,12.6-11.4c4.2,0,8,2.1,10.3,5.3L43.3,7c-1.2-1.4-3-2.2-5-2.2H10c-3.7,0-6.8,3-6.8,6.8v12.5
			C3.3,25.6,4.6,27,6.2,27z M7.6,10c0-0.5,0.4-0.9,0.9-0.9h4c0.5,0,0.9,0.4,0.9,0.9v0.4c0,0.5-0.4,0.9-0.9,0.9h-4
			c-0.5,0-0.9-0.4-0.9-0.9V10z"/>
		<circle class="st3" cx="24" cy="24.1" r="6.7"/>
	</g>
	<path class="st4" d="M60.3,33.2c-0.9,0-1.8-0.1-2.7-0.4c-0.9-0.2-1.6-0.7-2.3-1.2c-0.7-0.6-1.3-1.1-1.8-1.9
		c-0.2-0.4-0.6-0.8-0.8-1.3c-0.3-0.7,0-1.6,0.8-1.8l1.3-0.6c0.7-0.2,1.3,0.1,1.7,0.7c0.2,0.6,0.7,1,1,1.4c0.7,0.7,1.7,1.1,2.8,1.1
		c0.4,0,0.8,0,1.2-0.1c0.4-0.1,0.8-0.2,1-0.4c0.3-0.2,0.6-0.4,0.8-0.8c0.2-0.3,0.2-0.7,0.2-1.1c0-0.4-0.1-0.8-0.2-1.1
		c-0.1-0.3-0.3-0.7-0.7-0.9c-0.3-0.2-0.8-0.6-1.3-0.8s-1.2-0.6-2-0.8l-1.3-0.4c-0.6-0.2-1.1-0.4-1.8-0.8c-0.6-0.3-1.1-0.8-1.6-1.2
		c-0.4-0.4-0.9-1-1.2-1.7c-0.3-0.7-0.4-1.3-0.4-2.2c0-0.9,0.1-1.7,0.4-2.3c0.3-0.8,0.8-1.3,1.4-1.9c0.6-0.6,1.3-1,2.2-1.3
		c0.9-0.3,1.8-0.4,2.9-0.4s2,0.1,2.8,0.4c0.8,0.3,1.4,0.7,2,1.1c0.6,0.4,1,1,1.3,1.4c0,0,0,0.1,0.1,0.1c0.4,0.7,0.1,1.7-0.7,2
		l-1.1,0.4c-0.6,0.2-1.2,0.1-1.7-0.4c-0.2-0.2-0.3-0.4-0.7-0.7c-0.6-0.4-1.2-0.7-2.2-0.7c-0.9,0-1.6,0.2-2.2,0.7
		c-0.7,0.4-0.9,1-0.9,1.6c0,0.7,0.3,1.2,0.9,1.7c0.6,0.4,1.4,0.9,2.7,1.3l1.3,0.4c0.9,0.3,1.7,0.7,2.3,1c0.7,0.4,1.3,0.9,1.8,1.4
		c0.6,0.6,0.9,1.1,1.2,1.9s0.4,1.4,0.4,2.3c0,1.1-0.2,2.1-0.7,2.9c-0.4,0.8-1,1.4-1.8,2c-0.7,0.6-1.4,0.9-2.3,1.2
		C62,33.1,61.2,33.2,60.3,33.2z"/>
	<path class="st4" d="M71.9,16h0.3c0.8,0,1.3,0.7,1.3,1.3v13.8c0,0.8-0.7,1.3-1.3,1.3h-0.3c-0.8,0-1.3-0.7-1.3-1.3V17.5
		C70.5,16.7,71.1,16,71.9,16z"/>
	<path class="st4" d="M78.3,16h0.9c0.4,0,1,0.2,1.2,0.7l4.7,8.1h0.2l4.7-8.1c0.2-0.4,0.7-0.7,1.2-0.7H92c0.8,0,1.3,0.7,1.3,1.3v13.8
		c0,0.8-0.7,1.3-1.3,1.3h-0.3c-0.8,0-1.3-0.7-1.3-1.3v-6.8v-0.1l0.2-2.8h-0.2l-3.9,6.8c-0.2,0.4-0.7,0.7-1.2,0.7h-0.2
		c-0.4,0-1-0.2-1.2-0.7l-3.8-6.6h-0.2l0.2,2.8v0.1v6.8c0,0.8-0.7,1.3-1.3,1.3h-0.3c-0.8,0-1.3-0.7-1.3-1.3V17.5
		C77,16.7,77.5,16,78.3,16z"/>
	<path class="st4" d="M96.9,17.5c0-0.8,0.7-1.3,1.3-1.3h4.7c0.9,0,1.6,0.1,2.3,0.4c0.7,0.2,1.2,0.7,1.8,1.1c0.4,0.4,0.9,1,1.1,1.7
		c0.2,0.7,0.4,1.3,0.4,2.1c0,0.6-0.1,1.1-0.3,1.6c-0.2,0.4-0.4,0.9-0.8,1.3c-0.3,0.4-0.7,0.8-1.1,1c-0.4,0.3-0.9,0.6-1.3,0.7v0.1
		l4.4,6.4v0.2h-2.9c-0.4,0-0.9-0.2-1.1-0.6l-3.4-5.1c-0.2-0.3-0.7-0.6-1.1-0.6H100v4.9c0,0.8-0.7,1.3-1.3,1.3h-0.3
		c-0.8,0-1.3-0.7-1.3-1.3v-14H96.9z M102.9,23.6c0.7,0,1.3-0.2,1.8-0.7c0.4-0.4,0.7-1,0.7-1.7c0-0.3,0-0.6-0.1-0.9s-0.2-0.6-0.4-0.8
		c-0.2-0.2-0.4-0.4-0.8-0.6c-0.3-0.1-0.7-0.2-1-0.2h-1.6c-0.8,0-1.3,0.7-1.3,1.3V22c0,0.8,0.7,1.3,1.3,1.3h1.4V23.6z"/>
	<path class="st4" d="M117.2,16h1.7c0.6,0,1.1,0.3,1.3,0.9l5.2,13.8c0.3,0.9-0.3,1.9-1.3,1.9h-0.4c-0.6,0-1.1-0.3-1.3-0.9l-0.8-2.1
		c-0.2-0.6-0.7-0.9-1.3-0.9h-4.4c-0.6,0-1.1,0.3-1.3,0.9l-0.8,2.1c-0.2,0.6-0.7,0.9-1.3,0.9h-0.4c-1,0-1.7-1-1.3-1.9l5.2-13.8
		C116.1,16.4,116.5,16,117.2,16z M119.5,24l-0.8-2.3c0,0,0,0,0-0.1l-0.6-2H118l-0.6,2c0,0,0,0,0,0.1l-0.8,2.3
		c-0.3,0.9,0.3,1.9,1.3,1.9h0.4C119.2,25.9,119.8,24.9,119.5,24z"/>
	<path class="st4" d="M127.9,17.5c0-0.8,0.7-1.3,1.3-1.3h4.2c1.3,0,2.5,0.2,3.5,0.6c1.1,0.4,2,1,2.7,1.7c0.7,0.7,1.3,1.7,1.7,2.7
		c0.4,1,0.6,2.1,0.6,3.3c0,1.2-0.2,2.3-0.6,3.4c-0.4,1-1,1.9-1.7,2.7c-0.8,0.8-1.7,1.3-2.7,1.7c-1.1,0.4-2.2,0.6-3.5,0.6h-4.2
		c-0.8,0-1.3-0.7-1.3-1.3C127.9,31.3,127.9,17.5,127.9,17.5z M133.5,29.8c0.9,0,1.8-0.1,2.4-0.3c0.7-0.2,1.3-0.7,1.8-1.1
		c0.4-0.4,0.8-1,1-1.7c0.2-0.7,0.3-1.4,0.3-2.2s-0.1-1.6-0.3-2.2c-0.2-0.7-0.6-1.2-1-1.7c-0.4-0.4-1-0.8-1.8-1.1
		c-0.8-0.3-1.6-0.3-2.4-0.3h-1c-0.8,0-1.3,0.7-1.3,1.3v8c0,0.8,0.7,1.3,1.3,1.3C132.5,29.8,133.5,29.8,133.5,29.8z"/>
</g>
<g>
	<path class="st3" d="M33.9,3.5h4c0.5,0,0.9-0.4,0.9-0.9V2.1c0-0.5-0.4-0.9-0.9-0.9h-4c-0.5,0-0.9,0.4-0.9,0.9v0.4
		C33,3,33.4,3.5,33.9,3.5z"/>
	<path class="st3" d="M40.4,20C40.4,19.9,40.4,19.9,40.4,20L40.4,20c-0.5,0-0.9,0.1-1.2,0.2c-0.4,0.1-0.7,0.4-0.9,0.6L38,21l0,0
		l-1.5,1.6c0.1,0.5,0.1,1,0.1,1.4c0,7-5.7,12.6-12.6,12.6c-4.9,0-9.2-2.8-11.2-6.9L3.3,40.1c1.2,1.4,3,2.2,5,2.2h28.3
		c3.7,0,6.8-3,6.8-6.8V23C43.3,21.4,42,20,40.4,20z"/>
	<path class="st3" d="M6.2,27L6.2,27L6.2,27c0.5,0,0.9-0.1,1.2-0.2c0.4-0.1,0.7-0.4,0.9-0.6L8.5,26l0,0l2.8-3
		c0.6-6.4,6-11.4,12.6-11.4c4.2,0,8,2.1,10.3,5.3L43.3,7c-1.2-1.4-3-2.2-5-2.2H10c-3.7,0-6.8,3-6.8,6.8v12.5C3.3,25.6,4.6,27,6.2,27
		z M7.6,10c0-0.5,0.4-0.9,0.9-0.9h4c0.5,0,0.9,0.4,0.9,0.9v0.4c0,0.5-0.4,0.9-0.9,0.9h-4c-0.5,0-0.9-0.4-0.9-0.9V10z"/>
	<circle class="st3" cx="24" cy="24.1" r="6.7"/>
</g>
<g>
	<path class="st5" d="M59.9,33.2c-0.9,0-1.8-0.1-2.7-0.4c-0.9-0.2-1.6-0.7-2.3-1.2c-0.7-0.6-1.3-1.1-1.8-1.9c-0.3-0.4-0.7-1-0.9-1.7
		c-0.2-0.6,0-1.1,0.6-1.3l2-0.8c0.6-0.2,1.1,0,1.3,0.6c0.3,0.7,0.7,1.2,1.1,1.8c0.7,0.7,1.7,1.1,2.8,1.1c0.4,0,0.8,0,1.2-0.1
		c0.4-0.1,0.8-0.2,1-0.4c0.3-0.2,0.6-0.4,0.8-0.8c0.2-0.3,0.2-0.7,0.2-1.1c0-0.4-0.1-0.8-0.2-1.1c-0.1-0.3-0.3-0.7-0.7-0.9
		c-0.3-0.3-0.8-0.6-1.3-0.8c-0.6-0.2-1.2-0.6-2-0.8l-1.3-0.4c-0.6-0.2-1.1-0.4-1.8-0.8c-0.6-0.3-1.1-0.8-1.6-1.2
		c-0.4-0.4-0.9-1-1.2-1.7c-0.3-0.7-0.4-1.3-0.4-2.2c0-0.9,0.1-1.7,0.4-2.3c0.3-0.8,0.8-1.3,1.4-1.9c0.6-0.6,1.3-1,2.2-1.3
		c0.9-0.3,1.8-0.4,2.9-0.4s2,0.1,2.8,0.4c0.8,0.3,1.4,0.7,2,1.1c0.6,0.4,1,1,1.3,1.4c0.1,0.2,0.2,0.3,0.3,0.6c0.2,0.6,0,1.1-0.6,1.3
		l-1.8,0.8c-0.4,0.2-1,0-1.2-0.4c-0.2-0.3-0.4-0.6-0.7-0.9c-0.6-0.4-1.2-0.7-2.2-0.7c-0.9,0-1.6,0.2-2.2,0.7c-0.7,0.4-0.9,1-0.9,1.6
		c0,0.7,0.3,1.2,0.9,1.7c0.6,0.4,1.4,0.9,2.7,1.3l1.3,0.4c0.9,0.3,1.7,0.7,2.3,1c0.7,0.4,1.3,0.9,1.8,1.4c0.6,0.6,0.9,1.1,1.2,1.9
		c0.2,0.7,0.4,1.4,0.4,2.3c0,1.1-0.2,2.1-0.7,2.9c-0.4,0.8-1,1.4-1.8,2c-0.7,0.6-1.4,0.9-2.3,1.2C61.7,33.1,60.8,33.2,59.9,33.2z"/>
	<path class="st5" d="M71.1,16h1.1c0.6,0,1,0.4,1,1v14.6c0,0.6-0.4,1-1,1h-1.1c-0.6,0-1-0.4-1-1V17C70.1,16.5,70.5,16,71.1,16z"/>
	<path class="st5" d="M77.6,16h1.6c0.3,0,0.7,0.2,0.9,0.4l4.8,8.3H85l4.8-8.3c0.2-0.3,0.6-0.4,0.9-0.4h1.6c0.6,0,1,0.4,1,1v14.6
		c0,0.6-0.4,1-1,1h-1.1c-0.6,0-1-0.4-1-1v-7.2c0,0,0,0,0-0.1l0.2-2.8h-0.2l-4,7c-0.2,0.3-0.6,0.6-0.9,0.6h-0.8
		c-0.3,0-0.7-0.2-0.9-0.6l-3.9-6.9h-0.2l0.2,2.8c0,0,0,0,0,0.1v7.2c0,0.6-0.4,1-1,1h-1.1c-0.6,0-1-0.4-1-1V17
		C76.6,16.5,77.1,16,77.6,16z"/>
	<path class="st5" d="M96.6,17c0-0.6,0.4-1,1-1h5.1c0.9,0,1.6,0.1,2.3,0.4c0.7,0.2,1.2,0.7,1.8,1.1c0.4,0.4,0.9,1,1.1,1.7
		s0.4,1.3,0.4,2.1c0,0.6-0.1,1.1-0.3,1.6s-0.4,0.9-0.8,1.3c-0.3,0.4-0.7,0.8-1.1,1c-0.4,0.3-0.9,0.6-1.3,0.7V26l4.4,6.4v0.2h-3.1
		c-0.3,0-0.7-0.1-0.8-0.4l-3.8-5.4c-0.2-0.2-0.4-0.4-0.8-0.4h-1.1v5.3c0,0.6-0.4,1-1,1h-1.1c-0.6,0-1-0.4-1-1V17z M102.6,23.6
		c0.7,0,1.3-0.2,1.8-0.7s0.7-1,0.7-1.7c0-0.3,0-0.6-0.1-0.9c-0.1-0.3-0.2-0.6-0.4-0.8c-0.2-0.2-0.4-0.4-0.8-0.6
		c-0.3-0.1-0.7-0.2-1-0.2h-2c-0.6,0-1,0.4-1,1v2.7c0,0.6,0.4,1,1,1h1.9V23.6z"/>
	<path class="st5" d="M116.5,16h2.2c0.4,0,0.8,0.2,0.9,0.7l5.5,14.6c0.2,0.7-0.2,1.3-0.9,1.3H123c-0.4,0-0.8-0.2-0.9-0.7l-0.9-2.7
		c-0.1-0.4-0.6-0.7-0.9-0.7h-5c-0.4,0-0.8,0.2-0.9,0.7l-0.9,2.7c-0.1,0.4-0.6,0.7-0.9,0.7h-1.3c-0.7,0-1.2-0.7-0.9-1.3l5.5-14.6
		C115.8,16.2,116.1,16,116.5,16z M119.4,24.6l-1-2.8l0,0l-0.6-2h-0.2l-0.6,2l0,0l-1,2.8c-0.2,0.7,0.2,1.3,0.9,1.3h1.6
		C119.1,25.9,119.6,25.1,119.4,24.6z"/>
	<path class="st5" d="M127.6,17c0-0.6,0.4-1,1-1h4.7c1.3,0,2.5,0.2,3.5,0.6c1.1,0.4,2,1,2.7,1.7s1.3,1.7,1.7,2.7
		c0.4,1,0.6,2.1,0.6,3.3s-0.2,2.3-0.6,3.4c-0.4,1-1,1.9-1.7,2.7c-0.7,0.8-1.7,1.3-2.7,1.7c-1,0.3-2.2,0.6-3.5,0.6h-4.7
		c-0.6,0-1-0.4-1-1V17z M133.2,29.8c0.9,0,1.8-0.1,2.4-0.3c0.7-0.2,1.3-0.7,1.8-1.1c0.4-0.4,0.8-1,1-1.7c0.2-0.7,0.3-1.4,0.3-2.2
		c0-0.8-0.1-1.6-0.3-2.2c-0.2-0.7-0.6-1.2-1-1.7c-0.4-0.4-1-0.8-1.8-1.1c-0.8-0.3-1.6-0.3-2.4-0.3h-1.3c-0.6,0-1,0.4-1,1v8.8
		c0,0.6,0.4,1,1,1h1.3V29.8z"/>
</g>
</svg>
