<?xml version="1.0" encoding="utf-8"?>
<!-- Generator: Adobe Illustrator 26.3.1, SVG Export Plug-In . SVG Version: 6.00 Build 0)  -->
<svg version="1.1" id="katman_1" xmlns="http://www.w3.org/2000/svg" xmlns:xlink="http://www.w3.org/1999/xlink" x="0px" y="0px"
	 viewBox="0 0 100 35" style="enable-background:new 0 0 100 35;" xml:space="preserve">
<style type="text/css">
	.st0{fill:#4E4E4E;}
	.st1{display:none;fill:#1EA8E7;}
	.st2{fill:#00ADEE;}
</style>
<path class="st0" d="M66.3-31.4h-7.8c-0.2,0-0.4,0.1-0.5,0.3l-1.4,3.3c-0.1,0.2-0.3,0.3-0.5,0.3H54c-0.3,0-0.5-0.2-0.5-0.5
	c0-0.1,0-0.1,0-0.2l7.1-15.9c0.1-0.2,0.3-0.3,0.5-0.3h2.4c0.2,0,0.4,0.1,0.5,0.3l7.2,15.9c0.1,0.3,0,0.6-0.3,0.7c-0.1,0-0.1,0-0.2,0
	h-2.2c-0.2,0-0.4-0.1-0.5-0.3l-1.4-3.3C66.7-31.3,66.5-31.4,66.3-31.4z M65.3-34.6l-2.4-5.6c-0.1-0.2-0.4-0.3-0.7-0.2
	c-0.1,0.1-0.2,0.1-0.3,0.3l-2.4,5.6c-0.1,0.3,0,0.5,0.3,0.7c0.1,0,0.1,0,0.2,0h4.8c0.3,0,0.5-0.2,0.5-0.5
	C65.3-34.4,65.3-34.5,65.3-34.6L65.3-34.6z"/>
<path class="st0" d="M74.7-28.1c-1-0.5-1.9-1.3-2.5-2.4c-1.2-2.1-1.2-4.7,0-6.8c0.6-1,1.5-1.8,2.5-2.3c1.1-0.6,2.4-0.9,3.6-0.8
	c1.2,0,2.3,0.2,3.3,0.8c0.8,0.4,1.4,1,1.9,1.8c0.2,0.2,0.1,0.5-0.1,0.7l0,0l-1.5,0.7c-0.2,0.1-0.5,0.1-0.7-0.1
	c-0.3-0.4-0.7-0.8-1.1-1c-0.6-0.3-1.2-0.4-1.8-0.4c-1,0-2.1,0.4-2.8,1.1c-0.8,0.8-1.2,1.8-1.1,2.9c-0.1,1.1,0.4,2.2,1.1,3
	c1.2,1.2,3.1,1.5,4.6,0.6c0.4-0.2,0.8-0.6,1.1-1c0.2-0.2,0.4-0.3,0.7-0.1l1.5,0.9c0.2,0.1,0.3,0.4,0.2,0.7l0,0
	c-0.5,0.7-1.1,1.4-1.9,1.8c-1,0.5-2.2,0.8-3.3,0.8C77.1-27.3,75.8-27.6,74.7-28.1z"/>
<path class="st0" d="M87.5-28.1c-1-0.5-1.9-1.4-2.5-2.4s-0.9-2.2-0.9-3.4s0.3-2.4,0.9-3.4s1.4-1.8,2.5-2.3c1.1-0.6,2.3-0.9,3.5-0.8
	c1.2,0,2.5,0.3,3.6,0.8c1,0.5,1.9,1.4,2.4,2.3c1.2,2.1,1.2,4.7,0,6.8c-0.6,1-1.4,1.8-2.4,2.4c-1.1,0.6-2.3,0.9-3.6,0.9
	C89.8-27.3,88.6-27.6,87.5-28.1z M93.8-31c0.7-0.8,1.1-1.8,1.1-2.9c0-1.1-0.3-2.1-1.1-2.9c-1.5-1.5-4-1.5-5.5,0
	c-0.7,0.8-1.1,1.8-1.1,2.9c0,1.1,0.3,2.1,1.1,2.9C89.8-29.5,92.2-29.5,93.8-31z"/>
<path class="st0" d="M107.3-40v1.8c0,0.3-0.2,0.5-0.5,0.5l0,0h-0.2c-1-0.1-2,0.3-2.8,1c-0.7,0.8-1.1,1.9-1,3v5.7
	c0,0.3-0.2,0.5-0.5,0.5l0,0h-2c-0.3,0-0.5-0.2-0.5-0.5l0,0v-11.8c0-0.3,0.2-0.5,0.5-0.5h1.9c0.3,0,0.5,0.2,0.5,0.5l0,0v0.1
	c0,0.3,0.2,0.5,0.5,0.5c0.1,0,0.2,0,0.3-0.1c0.9-0.7,2.1-1.1,3.2-1.1C107-40.5,107.3-40.3,107.3-40L107.3-40z"/>
<path class="st0" d="M120.1-39.1c1.1,1.1,1.6,2.7,1.5,4.2v6.9c0,0.3-0.2,0.5-0.5,0.5l0,0h-2c-0.3,0-0.5-0.2-0.5-0.5l0,0v-6.5
	c0.1-0.9-0.2-1.8-0.8-2.5c-0.6-0.6-1.4-0.9-2.3-0.9c-1-0.1-1.9,0.3-2.6,1c-0.7,0.8-1.1,1.8-1,2.9v6c0,0.3-0.2,0.5-0.5,0.5l0,0h-2
	c-0.3,0-0.5-0.2-0.5-0.5l0,0v-11.8c0-0.3,0.2-0.5,0.5-0.5l0,0h1.9c0.3,0,0.5,0.2,0.5,0.5l0,0c0,0.3,0.2,0.5,0.5,0.5
	c0.1,0,0.2,0,0.3-0.1c0.3-0.2,0.7-0.4,1.1-0.6c0.8-0.3,1.7-0.5,2.6-0.5C117.6-40.6,119-40.1,120.1-39.1z"/>
<path class="st1" d="M23.7,7.2C22,6,19.2,4.6,14.9,4.3V4c0-0.1,0.1-0.2,0.2-0.2l0.5-0.1c0.9-0.2,1.5-1.2,1.3-2.1s-1.2-1.5-2.1-1.3
	l-0.5,0.1c-1.7,0.4-2.8,1.9-2.8,3.6v0.3C7,4.5,4.2,5.9,2.5,7.2c-1.4,1-2.2,2.9-1.9,4.9l0.2,1.8c0.1,1.3,0.7,2.5,1.7,3.5l0.6,6.4
	c0.2,2.6,1.6,4.9,3.8,6.4l1.9,1.3c1.3,0.9,2.9,1.4,4.4,1.4s3.1-0.5,4.4-1.4l1.9-1.3c2.2-1.5,3.5-3.8,3.8-6.4l0.6-6.4
	c1-1,1.5-2.2,1.7-3.5l0.2-1.8C25.8,10,25.1,8.2,23.7,7.2z M4.6,10c1.5-1.1,4.1-2.3,8.5-2.3s7,1.3,8.5,2.3c0.6,0.4,0.6,1.3,0.5,1.7
	l-0.2,1.8c-0.1,0.7-0.4,1.3-1,1.7c-0.7,0.5-1.6,0.7-2.5,0.5c-1.9-0.4-3.7-0.6-5.3-0.6s-3.4,0.2-5.3,0.6c-0.9,0.2-1.8,0-2.5-0.5
	c-0.6-0.4-1-1-1-1.7l-0.2-1.8C4,11.3,4,10.4,4.6,10z M17.4,27.3l-1.9,1.3c-1.4,1-3.4,1-4.8,0l-1.9-1.3c-1.3-0.9-2.1-2.3-2.3-3.8
	l-0.4-4.3c0.8,0.1,1.6,0.1,2.3,0c1.7-0.3,3.2-0.5,4.6-0.5s2.9,0.2,4.6,0.5c0.4,0.1,0.9,0.1,1.3,0.1c0.3,0,0.7,0,1-0.1l-0.4,4.3
	C19.5,25,18.7,26.4,17.4,27.3z"/>
<path class="st0" d="M43.3,18.4c0-0.3,0.3-0.6,0.6-0.6h9.9c0.1,0.2,0.1,0.5,0.2,0.9s0.1,0.7,0.1,1c0,1.4-0.2,2.7-0.6,3.9
	s-1.1,2.3-2,3.3c-1,1-2.1,1.8-3.5,2.4c-1.3,0.6-2.9,0.8-4.6,0.8c-1.6,0-3-0.3-4.4-0.8S36.4,28,35.4,27s-1.8-2.2-2.4-3.6
	c-0.6-1.4-0.9-2.9-0.9-4.5s0.3-3.1,0.9-4.5c0.6-1.4,1.4-2.6,2.4-3.6S37.6,9,39,8.5c1.4-0.6,2.9-0.8,4.4-0.8c1.7,0,3.3,0.3,4.7,0.9
	c1.2,0.5,2.2,1.2,3.1,2c0.3,0.2,0.2,0.7,0,0.9l-1.9,1.9c-0.2,0.2-0.6,0.2-0.9,0c-0.6-0.5-1.2-1-1.9-1.3c-0.9-0.4-1.9-0.6-3.1-0.6
	c-1,0-1.9,0.2-2.8,0.5c-0.9,0.4-1.6,0.8-2.3,1.5c-0.7,0.6-1.2,1.4-1.6,2.3c-0.4,0.9-0.6,1.9-0.6,3s0.2,2.1,0.6,3
	c0.4,0.9,0.9,1.7,1.6,2.3c0.7,0.6,1.4,1.1,2.3,1.5c0.9,0.3,1.8,0.5,2.8,0.5c1.1,0,2.1-0.2,2.9-0.5c0.8-0.3,1.5-0.8,2-1.3
	c0.4-0.4,0.7-0.8,1-1.4c0.2-0.3,0.3-0.6,0.4-1c0.1-0.4-0.2-0.9-0.6-0.9h-5.3c-0.3,0-0.6-0.3-0.6-0.6L43.3,18.4L43.3,18.4z"/>
<path class="st0" d="M59.5,18.4c-0.5,0-1-0.1-1.4-0.2c-0.4-0.2-0.8-0.4-1-0.7s-0.5-0.7-0.7-1.1s-0.2-1-0.2-1.5v-4.5
	c0-0.3,0.3-0.6,0.6-0.6h0.4c0.3,0,0.6,0.3,0.6,0.6V15c0,0.3,0,0.6,0.1,0.8s0.2,0.4,0.3,0.6c0.1,0.2,0.3,0.3,0.5,0.4s0.5,0.1,0.7,0.1
	c0.3,0,0.5,0,0.8-0.1c0.2-0.1,0.4-0.2,0.5-0.4c0.1-0.2,0.3-0.4,0.3-0.6c0.1-0.2,0.1-0.5,0.1-0.8v-4.6c0-0.3,0.3-0.6,0.6-0.6h0.4
	c0.3,0,0.6,0.3,0.6,0.6v4.5c0,0.5-0.1,1-0.2,1.5c-0.2,0.4-0.4,0.8-0.7,1.1c-0.3,0.3-0.6,0.6-1.1,0.7C60.5,18.3,60,18.4,59.5,18.4z"
	/>
<path class="st0" d="M64.4,10.3c0-0.3,0.3-0.6,0.6-0.6h2.3c0.7,0,1.3,0.1,1.8,0.3s1,0.5,1.4,0.9s0.7,0.8,0.9,1.4
	c0.2,0.5,0.3,1.1,0.3,1.7c0,0.6-0.1,1.2-0.3,1.8s-0.5,1-0.9,1.4s-0.8,0.7-1.4,0.9s-1.2,0.3-1.8,0.3H65c-0.3,0-0.6-0.3-0.6-0.6V10.3z
	 M67.2,16.7c0.5,0,0.9-0.1,1.2-0.2c0.4-0.1,0.7-0.3,0.9-0.6c0.2-0.2,0.4-0.5,0.5-0.9c0.1-0.3,0.2-0.7,0.2-1.1s-0.1-0.8-0.2-1.1
	s-0.3-0.6-0.5-0.9c-0.2-0.2-0.5-0.4-0.9-0.6c-0.4-0.1-0.8-0.2-1.2-0.2H66v5.5h1.2V16.7z"/>
<path class="st0" d="M75.6,9.6h1c0.3,0,0.5,0.2,0.6,0.4l2.8,7.3c0.2,0.4-0.2,0.9-0.6,0.9H79c-0.3,0-0.5-0.2-0.6-0.4L78,16.6
	c-0.1-0.3-0.3-0.4-0.6-0.4H75c-0.3,0-0.5,0.2-0.6,0.4L74,17.8c-0.1,0.3-0.3,0.4-0.6,0.4H73c-0.4,0-0.7-0.4-0.6-0.9L75,10
	C75.1,9.8,75.3,9.6,75.6,9.6z M76.3,14.7c0.4,0,0.7-0.4,0.6-0.8l-0.5-1.3l-0.3-1H76l-0.3,1l-0.5,1.3c-0.1,0.4,0.2,0.8,0.6,0.8H76.3z
	"/>
<path class="st0" d="M81.9,9.6h0.9c0.2,0,0.4,0.1,0.5,0.3l3.3,5.5h0.1l-0.1-1.6l0,0v-3.5c0-0.3,0.3-0.6,0.6-0.6h0.3
	c0.3,0,0.6,0.3,0.6,0.6v7.3c0,0.3-0.3,0.6-0.6,0.6h-0.7c-0.2,0-0.4-0.1-0.5-0.3l-3.5-5.8h-0.1l0.1,1.6l0,0v3.8
	c0,0.3-0.3,0.6-0.6,0.6h-0.3c-0.3,0-0.6-0.3-0.6-0.6v-7.3C81.2,9.9,81.5,9.6,81.9,9.6z"/>
<path class="st0" d="M93.9,13.5h4.2c0,0.1,0,0.2,0.1,0.3c0,0.1,0,0.3,0,0.4c0,0.6-0.1,1.1-0.3,1.6c-0.2,0.5-0.4,0.9-0.8,1.3
	s-0.8,0.7-1.4,0.9c-0.5,0.2-1.1,0.3-1.8,0.3c-0.6,0-1.2-0.1-1.8-0.3c-0.6-0.2-1-0.5-1.4-0.9s-0.7-0.9-1-1.4
	c-0.2-0.5-0.4-1.1-0.4-1.8s0.1-1.2,0.4-1.8c0.2-0.5,0.6-1,1-1.4s0.9-0.7,1.4-0.9c0.6-0.2,1.1-0.3,1.8-0.3c0.7,0,1.3,0.1,1.9,0.4
	c0.3,0.1,0.6,0.3,0.9,0.5s0.3,0.7,0,1L96.1,12c-0.3-0.3-0.6-0.5-0.9-0.7C94.8,11,94.4,11,93.9,11c-0.4,0-0.8,0.1-1.1,0.2
	c-0.4,0.1-0.7,0.3-0.9,0.6c-0.3,0.3-0.5,0.6-0.6,0.9c-0.2,0.4-0.2,0.8-0.2,1.2s0.1,0.9,0.2,1.2c0.2,0.4,0.4,0.7,0.6,0.9
	c0.3,0.3,0.6,0.5,0.9,0.6c0.4,0.1,0.7,0.2,1.1,0.2c0.5,0,0.8-0.1,1.2-0.2c0.3-0.1,0.6-0.3,0.8-0.5c0.2-0.1,0.3-0.3,0.4-0.5
	s0.2-0.5,0.3-0.7h-2.7C93.9,14.9,93.9,13.5,93.9,13.5z"/>
<path class="st0" d="M59.3,19.6h1c0.3,0,0.5,0.2,0.6,0.4l2.8,7.3c0.2,0.4-0.2,0.9-0.6,0.9h-0.4c-0.3,0-0.5-0.2-0.6-0.4l-0.4-1.2
	c-0.1-0.3-0.3-0.4-0.6-0.4h-2.4c-0.3,0-0.5,0.2-0.6,0.4l-0.4,1.2c-0.1,0.3-0.3,0.4-0.6,0.4h-0.4c-0.4,0-0.7-0.4-0.6-0.9l2.8-7.3
	C58.8,19.8,59,19.6,59.3,19.6z M60.6,23.8l-0.5-1.3l0,0l-0.3-1h-0.1l-0.3,1L59,23.8c-0.1,0.4,0.2,0.8,0.6,0.8H60
	C60.4,24.7,60.8,24.2,60.6,23.8z"/>
<path class="st0" d="M65.6,19.6h0.6c0.2,0,0.4,0.1,0.5,0.3l2.4,4.2h0.1l2.4-4.2c0.1-0.2,0.3-0.3,0.5-0.3h0.6c0.3,0,0.6,0.3,0.6,0.6
	v7.3c0,0.3-0.3,0.6-0.6,0.6h-0.3c-0.3,0-0.6-0.3-0.6-0.6V24l0,0l0.1-1.4h-0.1l-2.2,3.9h-1l-2.2-3.9h-0.1l0.1,1.4l0,0v3.6
	c0,0.3-0.3,0.6-0.6,0.6h-0.3c-0.3,0-0.6-0.3-0.6-0.6v-7.3C64.9,19.9,65.2,19.6,65.6,19.6z"/>
<path class="st0" d="M75.2,20.3c0-0.3,0.3-0.6,0.6-0.6h2.7c0.4,0,0.7,0.1,1,0.2s0.6,0.3,0.8,0.5s0.4,0.4,0.6,0.7
	c0.1,0.3,0.2,0.6,0.2,0.9c0,0.5-0.1,0.8-0.3,1.1c-0.2,0.3-0.5,0.5-0.8,0.7v0.1c0.4,0.2,0.8,0.4,1.1,0.8c0.3,0.3,0.4,0.8,0.4,1.3
	c0,0.4-0.1,0.7-0.2,1s-0.4,0.5-0.6,0.8s-0.6,0.4-0.9,0.5s-0.7,0.2-1.1,0.2h-2.8c-0.3,0-0.6-0.3-0.6-0.6L75.2,20.3L75.2,20.3z
	 M78.5,23.1c0.4,0,0.7-0.1,0.9-0.3s0.3-0.4,0.3-0.7s-0.1-0.5-0.3-0.7c-0.2-0.2-0.5-0.3-0.8-0.3h-1c-0.3,0-0.6,0.3-0.6,0.6v0.8
	c0,0.3,0.3,0.6,0.6,0.6H78.5z M78.6,26.7c0.4,0,0.7-0.1,0.9-0.3s0.3-0.5,0.3-0.8s-0.1-0.6-0.3-0.8s-0.5-0.3-1-0.3h-1.1
	c-0.3,0-0.6,0.3-0.6,0.6V26c0,0.3,0.3,0.6,0.6,0.6L78.6,26.7L78.6,26.7z"/>
<path class="st0" d="M85.6,19.6h1c0.3,0,0.5,0.2,0.6,0.4l2.8,7.3c0.2,0.4-0.2,0.9-0.6,0.9H89c-0.3,0-0.5-0.2-0.6-0.4L88,26.6
	c-0.1-0.3-0.3-0.4-0.6-0.4H85c-0.3,0-0.5,0.2-0.6,0.4L84,27.8c-0.1,0.3-0.3,0.4-0.6,0.4H83c-0.4,0-0.7-0.4-0.6-0.9L85,20
	C85.1,19.8,85.3,19.6,85.6,19.6z M86.3,24.7c0.4,0,0.7-0.4,0.6-0.8l-0.5-1.3l-0.3-1H86l-0.3,1l-0.5,1.3c-0.1,0.4,0.2,0.8,0.6,0.8
	H86.3z"/>
<path class="st0" d="M91.2,20.3c0-0.3,0.3-0.6,0.6-0.6h2.5c0.4,0,0.8,0.1,1.2,0.2c0.4,0.1,0.7,0.3,0.9,0.6s0.4,0.5,0.6,0.9
	c0.1,0.3,0.2,0.7,0.2,1.1c0,0.3,0,0.6-0.1,0.8c-0.1,0.3-0.2,0.5-0.4,0.7c-0.2,0.2-0.4,0.4-0.6,0.5c-0.2,0.2-0.5,0.3-0.7,0.4V25
	l2.3,3.3v0.1h-1.5c-0.2,0-0.4-0.1-0.5-0.3l-2-3h-0.8v2.6c0,0.3-0.3,0.6-0.6,0.6h-0.4c-0.3,0-0.6-0.3-0.6-0.6L91.2,20.3L91.2,20.3z
	 M94.4,23.5c0.4,0,0.7-0.1,0.9-0.3c0.2-0.2,0.4-0.5,0.4-0.9c0-0.2,0-0.3-0.1-0.4s-0.1-0.3-0.2-0.4s-0.2-0.2-0.4-0.3
	c-0.2-0.1-0.3-0.1-0.5-0.1h-0.9c-0.3,0-0.6,0.3-0.6,0.6v1.1c0,0.3,0.3,0.6,0.6,0.6L94.4,23.5L94.4,23.5z"/>
<g>
	<path class="st2" d="M22.9,5.4h2.6c0.3,0,0.6-0.3,0.6-0.6V4.6c0-0.3-0.3-0.6-0.6-0.6h-2.6c-0.3,0-0.6,0.3-0.6,0.6v0.3
		C22.3,5.2,22.5,5.4,22.9,5.4z"/>
	<path class="st2" d="M27.1,16.3C27.2,16.3,27.2,16.3,27.1,16.3L27.1,16.3c-0.3,0-0.6,0.1-0.8,0.1c-0.2,0.1-0.4,0.2-0.6,0.4L25.6,17
		l0,0l-1,1.1c0,0.3,0.1,0.6,0.1,1c0,4.6-3.7,8.3-8.3,8.3c-3.2,0-6-1.8-7.4-4.5l-6.2,6.7C3.5,30.5,4.7,31,6,31h18.6
		c2.5,0,4.5-2,4.5-4.5v-8.2C29.1,17.2,28.2,16.3,27.1,16.3z"/>
	<path class="st2" d="M4.6,21L4.6,21L4.6,21c0.3,0,0.6-0.1,0.8-0.1c0.2-0.1,0.4-0.2,0.6-0.4l0.1-0.1l0,0l1.9-2
		c0.4-4.2,4-7.5,8.3-7.5c2.8,0,5.3,1.4,6.8,3.5l6-6.5c-0.8-0.9-2-1.5-3.3-1.5H7.1c-2.5,0-4.5,2-4.5,4.5v8.2C2.7,20,3.5,20.9,4.6,21z
		 M5.5,9.8c0-0.3,0.3-0.6,0.6-0.6h2.6c0.3,0,0.6,0.3,0.6,0.6V10c0,0.3-0.3,0.6-0.6,0.6H6.1c-0.3,0-0.6-0.3-0.6-0.6V9.8z"/>
	<circle class="st2" cx="16.3" cy="18.9" r="4"/>
</g>
</svg>
