<?xml version="1.0" encoding="utf-8"?>
<!-- Generator: Adobe Illustrator 26.3.1, SVG Export Plug-In . SVG Version: 6.00 Build 0)  -->
<svg version="1.1" id="katman_1" xmlns="http://www.w3.org/2000/svg" xmlns:xlink="http://www.w3.org/1999/xlink" x="0px" y="0px"
	 viewBox="0 0 144.8 46.4" style="enable-background:new 0 0 144.8 46.4;" xml:space="preserve">
<style type="text/css">
	.st0{fill:#00ADEE;}
	.st1{fill:#4E4E4E;}
</style>
<g>
	<path class="st0" d="M33.9,3.5h4c0.5,0,0.9-0.4,0.9-0.9V2.1c0-0.5-0.4-0.9-0.9-0.9h-4c-0.5,0-0.9,0.4-0.9,0.9v0.4
		C33,3,33.4,3.5,33.9,3.5z"/>
	<path class="st0" d="M40.4,20C40.4,19.9,40.4,19.9,40.4,20L40.4,20c-0.5,0-0.9,0.1-1.2,0.2c-0.4,0.1-0.7,0.4-0.9,0.6L38,21l0,0
		l-1.5,1.6c0.1,0.5,0.1,1,0.1,1.4c0,7-5.7,12.6-12.6,12.6c-4.9,0-9.2-2.8-11.2-6.9L3.3,40.1c1.2,1.4,3,2.2,5,2.2h28.3
		c3.7,0,6.8-3,6.8-6.8V23C43.3,21.4,42,20,40.4,20z"/>
	<path class="st0" d="M6.2,27L6.2,27L6.2,27c0.5,0,0.9-0.1,1.2-0.2c0.4-0.1,0.7-0.4,0.9-0.6L8.5,26l0,0l2.8-3
		c0.6-6.4,6-11.4,12.6-11.4c4.2,0,8,2.1,10.3,5.3L43.3,7c-1.2-1.4-3-2.2-5-2.2H10c-3.7,0-6.8,3-6.8,6.8v12.5C3.3,25.6,4.6,27,6.2,27
		z M7.6,10c0-0.5,0.4-0.9,0.9-0.9h4c0.5,0,0.9,0.4,0.9,0.9v0.4c0,0.5-0.4,0.9-0.9,0.9h-4c-0.5,0-0.9-0.4-0.9-0.9V10z"/>
	<circle class="st0" cx="24" cy="24.1" r="6.7"/>
</g>
<g>
	<path class="st1" d="M166.7-42.3c0-0.4,0.3-0.7,0.7-0.7h7.4c0,0.2,0.1,0.4,0.1,0.7s0,0.5,0,0.8c0,1.1-0.2,2.1-0.5,3
		s-0.8,1.8-1.5,2.5c-0.7,0.8-1.6,1.4-2.6,1.8c-1,0.4-2.2,0.6-3.5,0.6c-1.2,0-2.3-0.2-3.4-0.6c-1.1-0.4-2-1-2.8-1.8s-1.4-1.7-1.9-2.7
		s-0.7-2.2-0.7-3.4s0.2-2.4,0.7-3.4s1.1-2,1.9-2.7c0.8-0.8,1.7-1.4,2.8-1.8s2.2-0.6,3.4-0.6c1.3,0,2.5,0.2,3.6,0.7
		c0.8,0.4,1.5,0.8,2.2,1.4c0.3,0.3,0.3,0.7,0,1l-1.2,1.1c-0.3,0.2-0.7,0.3-0.9,0c-0.4-0.4-0.9-0.7-1.4-0.9c-0.7-0.3-1.4-0.4-2.4-0.4
		c-0.8,0-1.5,0.1-2.1,0.4c-0.7,0.3-1.3,0.6-1.8,1.1s-0.9,1.1-1.2,1.8c-0.3,0.7-0.4,1.5-0.4,2.3s0.1,1.6,0.4,2.3s0.7,1.3,1.2,1.8
		s1.1,0.9,1.8,1.1c0.7,0.2,1.4,0.4,2.2,0.4c0.9,0,1.6-0.1,2.2-0.4c0.6-0.3,1.1-0.6,1.6-1c0.3-0.3,0.6-0.6,0.8-1s0.4-0.9,0.5-1.4
		h-4.5c-0.4,0-0.7-0.3-0.7-0.7L166.7-42.3L166.7-42.3z"/>
	<path class="st1" d="M181.6-33.7c-0.7,0-1.4-0.1-1.9-0.3c-0.6-0.2-1.1-0.6-1.5-1c-0.4-0.4-0.7-1-1-1.6c-0.3-0.6-0.3-1.3-0.3-2.2
		v-6.6c0-0.4,0.3-0.7,0.7-0.7h0.9c0.4,0,0.7,0.3,0.7,0.7v6.8c0,0.4,0.1,0.8,0.2,1.1c0.1,0.3,0.3,0.6,0.5,0.9
		c0.2,0.2,0.5,0.4,0.8,0.6s0.7,0.2,1.1,0.2c0.4,0,0.8-0.1,1.1-0.2c0.3-0.1,0.6-0.3,0.8-0.6c0.2-0.2,0.4-0.5,0.5-0.9
		c0.1-0.3,0.2-0.7,0.2-1.1v-6.8c0-0.4,0.3-0.7,0.7-0.7h0.5c0.4,0,0.7,0.3,0.7,0.7v6.6c0,0.8-0.1,1.5-0.3,2.1c-0.2,0.6-0.5,1.2-1,1.6
		c-0.4,0.4-0.9,0.8-1.5,1C182.9-33.9,182.3-33.7,181.6-33.7z"/>
	<path class="st1" d="M188.5-45.5c0-0.4,0.3-0.7,0.7-0.7h3.4c1,0,1.8,0.1,2.6,0.4c0.8,0.3,1.4,0.7,2,1.2c0.5,0.5,1,1.2,1.2,1.9
		c0.3,0.7,0.4,1.6,0.4,2.5s-0.1,1.7-0.4,2.5c-0.3,0.7-0.7,1.4-1.2,1.9s-1.2,0.9-2,1.2c-0.8,0.4-1.6,0.6-2.6,0.6h-3.4
		c-0.4,0-0.7-0.3-0.7-0.7V-45.5z M192.5-36.2c0.7,0,1.3-0.1,1.8-0.3s0.9-0.5,1.3-0.8c0.3-0.3,0.6-0.8,0.8-1.2s0.3-1,0.3-1.6
		s-0.1-1.1-0.3-1.6s-0.4-0.9-0.8-1.2c-0.3-0.3-0.8-0.6-1.3-0.8s-1.1-0.3-1.8-0.3h-1c-0.4,0-0.7,0.3-0.7,0.7v6.4
		c0,0.4,0.3,0.7,0.7,0.7C191.5-36.2,192.5-36.2,192.5-36.2z"/>
	<path class="st1" d="M204.2-46.2h1.7c0.3,0,0.5,0.2,0.6,0.4l4.1,10.8c0.2,0.5-0.2,0.9-0.6,0.9h-1c-0.3,0-0.6-0.2-0.7-0.5l-0.7-2
		c-0.1-0.3-0.4-0.5-0.7-0.5h-3.7c-0.3,0-0.6,0.2-0.7,0.5l-0.7,2c-0.1,0.3-0.4,0.5-0.7,0.5h-1c-0.5,0-0.8-0.5-0.6-0.9l4.1-10.7
		C203.7-46,203.9-46.2,204.2-46.2z M206.3-39.9l-0.7-2.1l0,0l-0.4-1.5h-0.1l-0.5,1.4l0,0l-0.8,2.1c-0.2,0.5,0.2,1,0.6,1h1.2
		C206.2-39,206.5-39.5,206.3-39.9z"/>
	<path class="st1" d="M213.1-46.2h1.6c0.2,0,0.5,0.1,0.6,0.3l4.7,7.8h0.1l-0.1-2.3l0,0v-5.1c0-0.4,0.3-0.7,0.7-0.7h0.9
		c0.4,0,0.7,0.3,0.7,0.7v10.8c0,0.4-0.3,0.7-0.7,0.7h-1.3c-0.2,0-0.5-0.1-0.6-0.3l-5-8.3h-0.1l0.1,2.3l0,0v5.6
		c0,0.4-0.3,0.7-0.7,0.7h-0.9c-0.4,0-0.7-0.3-0.7-0.7v-10.8C212.4-45.9,212.7-46.2,213.1-46.2z"/>
	<path class="st1" d="M230.3-40c0-0.4,0.3-0.7,0.7-0.7h5.3c0,0.1,0.1,0.3,0.1,0.5s0,0.4,0,0.6c0,0.8-0.1,1.5-0.4,2.2
		c-0.2,0.7-0.6,1.3-1.1,1.9c-0.5,0.6-1.2,1-2,1.3s-1.6,0.5-2.6,0.5c-0.9,0-1.7-0.2-2.5-0.5s-1.5-0.8-2-1.3c-0.6-0.6-1-1.2-1.4-2
		c-0.4-0.8-0.5-1.6-0.5-2.5c0-0.9,0.2-1.8,0.5-2.5s0.8-1.4,1.4-2c0.6-0.6,1.3-1,2-1.3c0.8-0.3,1.6-0.5,2.5-0.5c1,0,1.9,0.2,2.6,0.5
		c0.5,0.2,1,0.5,1.4,0.9c0.3,0.3,0.4,0.8,0.1,1l-0.6,0.6c-0.2,0.2-0.6,0.3-0.9,0.1c-0.3-0.2-0.6-0.4-0.9-0.6
		c-0.5-0.2-1.1-0.3-1.8-0.3c-0.6,0-1.1,0.1-1.6,0.3s-0.9,0.5-1.3,0.8c-0.4,0.3-0.7,0.8-0.9,1.3s-0.3,1.1-0.3,1.7s0.1,1.2,0.3,1.7
		s0.5,1,0.9,1.3c0.4,0.4,0.8,0.6,1.3,0.8c0.5,0.2,1,0.3,1.6,0.3s1.2-0.1,1.6-0.3c0.4-0.2,0.8-0.4,1.1-0.7c0.2-0.2,0.4-0.5,0.6-0.8
		c0.2-0.3,0.3-0.7,0.4-1h-3.1c-0.4,0-0.7-0.3-0.7-0.7V-40H230.3z"/>
	<path class="st1" d="M166.7-24.3c0-0.4,0.3-0.7,0.7-0.7h7.4c0,0.2,0.1,0.4,0.1,0.7c0,0.3,0,0.5,0,0.8c0,1.1-0.2,2.1-0.5,3
		s-0.8,1.8-1.5,2.5c-0.7,0.8-1.6,1.4-2.6,1.8c-1,0.4-2.2,0.6-3.5,0.6c-1.2,0-2.3-0.2-3.4-0.6c-1.1-0.4-2-1-2.8-1.8
		c-0.8-0.8-1.4-1.7-1.9-2.7s-0.7-2.2-0.7-3.4s0.2-2.4,0.7-3.4s1.1-2,1.9-2.7c0.8-0.8,1.7-1.4,2.8-1.8c1.1-0.4,2.2-0.6,3.4-0.6
		c1.3,0,2.5,0.2,3.6,0.7c0.8,0.4,1.5,0.8,2.2,1.4c0.3,0.3,0.3,0.7,0,1l-1.2,1.1c-0.3,0.2-0.7,0.3-0.9,0c-0.4-0.4-0.9-0.7-1.4-0.9
		c-0.7-0.3-1.4-0.4-2.4-0.4c-0.8,0-1.5,0.1-2.1,0.4c-0.6,0.3-1.3,0.6-1.8,1.1s-0.9,1.1-1.2,1.8c-0.3,0.7-0.4,1.5-0.4,2.3
		c0,0.9,0.1,1.6,0.4,2.3c0.3,0.7,0.7,1.3,1.2,1.8s1.1,0.9,1.8,1.1c0.7,0.2,1.4,0.4,2.2,0.4c0.9,0,1.6-0.1,2.2-0.4
		c0.6-0.3,1.1-0.6,1.6-1c0.3-0.3,0.6-0.6,0.8-1c0.2-0.4,0.4-0.9,0.5-1.4h-4.5c-0.4,0-0.7-0.3-0.7-0.7L166.7-24.3L166.7-24.3z"/>
	<path class="st1" d="M181.1-28.2h1.7c0.3,0,0.5,0.2,0.6,0.4l4.1,10.8c0.2,0.5-0.2,0.9-0.6,0.9h-1c-0.3,0-0.6-0.2-0.7-0.5l-0.7-2
		c-0.1-0.3-0.4-0.5-0.7-0.5h-3.7c-0.3,0-0.6,0.2-0.7,0.5l-0.7,2c-0.1,0.3-0.4,0.5-0.7,0.5h-1c-0.5,0-0.8-0.5-0.6-0.9l4.1-10.8
		C180.6-28,180.9-28.2,181.1-28.2z M183.2-21.9l-0.7-2.1l0,0l-0.4-1.5H182l-0.4,1.5l0,0l-0.8,2.1c-0.2,0.5,0.2,0.9,0.7,0.9h1.1
		C183.1-21,183.4-21.5,183.2-21.9z"/>
	<path class="st1" d="M190-28.2h1.2c0.2,0,0.5,0.1,0.6,0.3l3.5,6.1h0.1l3.5-6.1c0.1-0.2,0.4-0.3,0.6-0.3h1.2c0.4,0,0.7,0.3,0.7,0.7
		v10.8c0,0.4-0.3,0.7-0.7,0.7h-0.9c-0.4,0-0.7-0.3-0.7-0.7V-22l0,0l0.1-2h-0.1l-2.9,5.1c-0.1,0.2-0.4,0.4-0.6,0.4H195
		c-0.2,0-0.5-0.1-0.6-0.3l-2.9-5.2h-0.1l0.1,2l0,0v5.3c0,0.4-0.3,0.7-0.7,0.7h-0.9c-0.4,0-0.7-0.3-0.7-0.7v-10.8
		C189.3-27.9,189.6-28.2,190-28.2z"/>
	<path class="st1" d="M203.9-27.5c0-0.4,0.3-0.7,0.7-0.7h4.1c0.5,0,1,0.1,1.5,0.2c0.5,0.2,0.8,0.4,1.2,0.7c0.3,0.3,0.6,0.6,0.8,1
		s0.3,0.8,0.3,1.2c0,0.6-0.2,1.2-0.5,1.6s-0.7,0.8-1.2,1v0.1c0.6,0.2,1.1,0.6,1.5,1.1s0.6,1.1,0.6,1.8c0,0.5-0.1,1-0.3,1.4
		s-0.5,0.8-0.9,1.1c-0.4,0.3-0.8,0.5-1.3,0.7c-0.5,0.2-1,0.2-1.6,0.2h-4.2c-0.4,0-0.7-0.3-0.7-0.7L203.9-27.5L203.9-27.5z
		 M208.4-23.2c0.5,0,0.9-0.1,1.2-0.4s0.4-0.6,0.4-1s-0.1-0.7-0.4-1s-0.7-0.4-1.2-0.4h-1.7c-0.4,0-0.7,0.3-0.7,0.7v1.5
		c0,0.4,0.3,0.7,0.7,0.7L208.4-23.2L208.4-23.2z M208.7-18.1c0.6,0,1-0.1,1.3-0.4s0.5-0.7,0.5-1.1c0-0.5-0.2-0.8-0.5-1.1
		c-0.3-0.3-0.8-0.5-1.4-0.5h-1.8c-0.4,0-0.7,0.3-0.7,0.7v1.7c0,0.4,0.3,0.7,0.7,0.7C206.8-18.1,208.7-18.1,208.7-18.1z"/>
	<path class="st1" d="M218.4-28.2h1.7c0.3,0,0.5,0.2,0.6,0.4l4.1,10.8c0.2,0.5-0.2,0.9-0.6,0.9h-1c-0.3,0-0.6-0.2-0.7-0.5l-0.7-2
		c-0.1-0.3-0.4-0.5-0.7-0.5h-3.7c-0.3,0-0.6,0.2-0.7,0.5l-0.7,2c-0.1,0.3-0.4,0.5-0.7,0.5h-1c-0.5,0-0.8-0.5-0.6-0.9l4.1-10.8
		C217.9-28,218.1-28.2,218.4-28.2z M220.5-21.9l-0.8-2.1l0,0l-0.4-1.5h-0.1l-0.4,1.5l0,0l-0.8,2.1c-0.2,0.5,0.2,0.9,0.7,0.9h1.2
		C220.3-21,220.7-21.5,220.5-21.9z"/>
	<path class="st1" d="M226.5-27.5c0-0.4,0.3-0.7,0.7-0.7h3.7c0.6,0,1.2,0.1,1.7,0.3c0.5,0.2,0.9,0.5,1.3,0.8
		c0.4,0.3,0.6,0.7,0.8,1.2s0.3,1,0.3,1.5c0,0.4-0.1,0.8-0.2,1.1c-0.1,0.4-0.3,0.7-0.6,1s-0.5,0.5-0.8,0.8c-0.3,0.2-0.7,0.4-1,0.5
		v0.1l3.3,4.7v0.2h-2.3c-0.2,0-0.4-0.1-0.6-0.3l-2.9-4.3h-1.1v3.9c0,0.4-0.3,0.7-0.7,0.7h-0.9c-0.4,0-0.7-0.3-0.7-0.7
		C226.5-16.7,226.5-27.5,226.5-27.5z M231-22.7c0.5,0,0.9-0.2,1.3-0.5c0.3-0.3,0.5-0.7,0.5-1.2c0-0.2,0-0.4-0.1-0.6
		s-0.2-0.4-0.3-0.5c-0.1-0.2-0.3-0.3-0.6-0.4c-0.2-0.1-0.5-0.1-0.8-0.1h-1.5c-0.4,0-0.7,0.3-0.7,0.7v2c0,0.4,0.3,0.7,0.7,0.7
		L231-22.7L231-22.7z"/>
</g>
<path class="st1" d="M60.3,33.2c-0.9,0-1.8-0.1-2.7-0.4c-0.9-0.2-1.6-0.7-2.3-1.2c-0.7-0.6-1.3-1.1-1.8-1.9
	c-0.2-0.4-0.6-0.8-0.8-1.3c-0.3-0.7,0-1.6,0.8-1.8l1.3-0.6c0.7-0.2,1.3,0.1,1.7,0.7c0.2,0.6,0.7,1,1,1.4c0.7,0.7,1.7,1.1,2.8,1.1
	c0.4,0,0.8,0,1.2-0.1c0.4-0.1,0.8-0.2,1-0.4c0.3-0.2,0.6-0.4,0.8-0.8c0.2-0.3,0.2-0.7,0.2-1.1c0-0.4-0.1-0.8-0.2-1.1
	c-0.1-0.3-0.3-0.7-0.7-0.9c-0.3-0.2-0.8-0.6-1.3-0.8s-1.2-0.6-2-0.8l-1.3-0.4c-0.6-0.2-1.1-0.4-1.8-0.8c-0.6-0.3-1.1-0.8-1.6-1.2
	c-0.4-0.4-0.9-1-1.2-1.7c-0.3-0.7-0.4-1.3-0.4-2.2c0-0.9,0.1-1.7,0.4-2.3c0.3-0.8,0.8-1.3,1.4-1.9c0.6-0.6,1.3-1,2.2-1.3
	c0.9-0.3,1.8-0.4,2.9-0.4s2,0.1,2.8,0.4c0.8,0.3,1.4,0.7,2,1.1c0.6,0.4,1,1,1.3,1.4c0,0,0,0.1,0.1,0.1c0.4,0.7,0.1,1.7-0.7,2
	l-1.1,0.4c-0.6,0.2-1.2,0.1-1.7-0.4c-0.2-0.2-0.3-0.4-0.7-0.7c-0.6-0.4-1.2-0.7-2.2-0.7c-0.9,0-1.6,0.2-2.2,0.7
	c-0.7,0.4-0.9,1-0.9,1.6c0,0.7,0.3,1.2,0.9,1.7c0.6,0.4,1.4,0.9,2.7,1.3l1.3,0.4c0.9,0.3,1.7,0.7,2.3,1c0.7,0.4,1.3,0.9,1.8,1.4
	c0.6,0.6,0.9,1.1,1.2,1.9s0.4,1.4,0.4,2.3c0,1.1-0.2,2.1-0.7,2.9c-0.4,0.8-1,1.4-1.8,2c-0.7,0.6-1.4,0.9-2.3,1.2
	C62,33.1,61.2,33.2,60.3,33.2z"/>
<path class="st1" d="M71.9,16h0.3c0.8,0,1.3,0.7,1.3,1.3v13.8c0,0.8-0.7,1.3-1.3,1.3h-0.3c-0.8,0-1.3-0.7-1.3-1.3V17.5
	C70.5,16.7,71.1,16,71.9,16z"/>
<path class="st1" d="M78.3,16h0.9c0.4,0,1,0.2,1.2,0.7l4.7,8.1h0.2l4.7-8.1c0.2-0.4,0.7-0.7,1.2-0.7H92c0.8,0,1.3,0.7,1.3,1.3v13.8
	c0,0.8-0.7,1.3-1.3,1.3h-0.3c-0.8,0-1.3-0.7-1.3-1.3v-6.8v-0.1l0.2-2.8h-0.2l-3.9,6.8c-0.2,0.4-0.7,0.7-1.2,0.7h-0.2
	c-0.4,0-1-0.2-1.2-0.7l-3.8-6.6h-0.2l0.2,2.8v0.1v6.8c0,0.8-0.7,1.3-1.3,1.3h-0.3c-0.8,0-1.3-0.7-1.3-1.3V17.5
	C77,16.7,77.5,16,78.3,16z"/>
<path class="st1" d="M96.9,17.5c0-0.8,0.7-1.3,1.3-1.3h4.7c0.9,0,1.6,0.1,2.3,0.4c0.7,0.2,1.2,0.7,1.8,1.1c0.4,0.4,0.9,1,1.1,1.7
	c0.2,0.7,0.4,1.3,0.4,2.1c0,0.6-0.1,1.1-0.3,1.6c-0.2,0.4-0.4,0.9-0.8,1.3c-0.3,0.4-0.7,0.8-1.1,1c-0.4,0.3-0.9,0.6-1.3,0.7v0.1
	l4.4,6.4v0.2h-2.9c-0.4,0-0.9-0.2-1.1-0.6l-3.4-5.1c-0.2-0.3-0.7-0.6-1.1-0.6H100v4.9c0,0.8-0.7,1.3-1.3,1.3h-0.3
	c-0.8,0-1.3-0.7-1.3-1.3v-14H96.9z M102.9,23.6c0.7,0,1.3-0.2,1.8-0.7c0.4-0.4,0.7-1,0.7-1.7c0-0.3,0-0.6-0.1-0.9s-0.2-0.6-0.4-0.8
	c-0.2-0.2-0.4-0.4-0.8-0.6c-0.3-0.1-0.7-0.2-1-0.2h-1.6c-0.8,0-1.3,0.7-1.3,1.3V22c0,0.8,0.7,1.3,1.3,1.3h1.4V23.6z"/>
<path class="st1" d="M117.2,16h1.7c0.6,0,1.1,0.3,1.3,0.9l5.2,13.8c0.3,0.9-0.3,1.9-1.3,1.9h-0.4c-0.6,0-1.1-0.3-1.3-0.9l-0.8-2.1
	c-0.2-0.6-0.7-0.9-1.3-0.9h-4.4c-0.6,0-1.1,0.3-1.3,0.9l-0.8,2.1c-0.2,0.6-0.7,0.9-1.3,0.9h-0.4c-1,0-1.7-1-1.3-1.9l5.2-13.8
	C116.1,16.4,116.5,16,117.2,16z M119.5,24l-0.8-2.3c0,0,0,0,0-0.1l-0.6-2H118l-0.6,2c0,0,0,0,0,0.1l-0.8,2.3
	c-0.3,0.9,0.3,1.9,1.3,1.9h0.4C119.2,25.9,119.8,24.9,119.5,24z"/>
<path class="st1" d="M127.9,17.5c0-0.8,0.7-1.3,1.3-1.3h4.2c1.3,0,2.5,0.2,3.5,0.6c1.1,0.4,2,1,2.7,1.7c0.7,0.7,1.3,1.7,1.7,2.7
	c0.4,1,0.6,2.1,0.6,3.3c0,1.2-0.2,2.3-0.6,3.4c-0.4,1-1,1.9-1.7,2.7c-0.8,0.8-1.7,1.3-2.7,1.7c-1.1,0.4-2.2,0.6-3.5,0.6h-4.2
	c-0.8,0-1.3-0.7-1.3-1.3C127.9,31.3,127.9,17.5,127.9,17.5z M133.5,29.8c0.9,0,1.8-0.1,2.4-0.3c0.7-0.2,1.3-0.7,1.8-1.1
	c0.4-0.4,0.8-1,1-1.7c0.2-0.7,0.3-1.4,0.3-2.2s-0.1-1.6-0.3-2.2c-0.2-0.7-0.6-1.2-1-1.7c-0.4-0.4-1-0.8-1.8-1.1
	c-0.8-0.3-1.6-0.3-2.4-0.3h-1c-0.8,0-1.3,0.7-1.3,1.3v8c0,0.8,0.7,1.3,1.3,1.3C132.5,29.8,133.5,29.8,133.5,29.8z"/>
</svg>
